
<svg width="329px" height="485px" viewBox="0 0 429 485" version="1.1" xmlns="http://www.w3.org/2000/svg" xmlns:xlink="http://www.w3.org/1999/xlink">
    <!-- Generator: Sketch 49.3 (51167) - http://www.bohemiancoding.com/sketch -->
    <desc>Created with Sketch.</desc>
    <defs></defs>
    <g id="Page-1" stroke="none" stroke-width="1" fill="none" fill-rule="evenodd">
        <g id="FriendlyCacti_Bunny-Ears" transform="translate(3.000000, 2.000000)">
            <path d="M45.42,4 C46,3.8 46.58,3.61 47.17,3.44 C92.94,-10.56 137.91,27.69 132.56,75.26 L124.22,149.51 L69.05,167.92 L18.16,113.18 C-14.36,78.18 -1.22,20.86 43.68,4.6 C44.26,4.35 44.83,4.15 45.42,4 Z" id="Shape" stroke="#000000" stroke-width="5" fill="#7EFD03" fill-rule="nonzero"></path>
            <circle id="Oval" fill="#000000" fill-rule="nonzero" cx="77.52" cy="96.17" r="2.75"></circle>
            <circle id="Oval" fill="#000000" fill-rule="nonzero" cx="78.25" cy="119.55" r="2.75"></circle>
            <circle id="Oval" fill="#000000" fill-rule="nonzero" cx="89.71" cy="138.05" r="2.75"></circle>
            <circle id="Oval" fill="#000000" fill-rule="nonzero" cx="61.06" cy="137.05" r="2.75"></circle>
            <circle id="Oval" fill="#000000" fill-rule="nonzero" cx="109.28" cy="94.72" r="2.75"></circle>
            <circle id="Oval" fill="#000000" fill-rule="nonzero" cx="100.98" cy="118.41" r="2.75"></circle>
            <circle id="Oval" fill="#000000" fill-rule="nonzero" cx="56.61" cy="85.03" r="2.75"></circle>
            <circle id="Oval" fill="#000000" fill-rule="nonzero" cx="32.84" cy="93.73" r="2.75"></circle>
            <circle id="Oval" fill="#000000" fill-rule="nonzero" cx="36.51" cy="114.26" r="2.75"></circle>
            <circle id="Oval" fill="#000000" fill-rule="nonzero" cx="58.29" cy="108.21" r="2.75"></circle>
            <circle id="Oval" fill="#000000" fill-rule="nonzero" cx="94.4" cy="76.34" r="2.75"></circle>
            <circle id="Oval" fill="#000000" fill-rule="nonzero" cx="111.46" cy="61.04" r="2.75"></circle>
            <circle id="Oval" fill="#000000" fill-rule="nonzero" cx="107.72" cy="41.39" r="2.75"></circle>
            <circle id="Oval" fill="#000000" fill-rule="nonzero" cx="87.96" cy="48.35" r="2.75"></circle>
            <circle id="Oval" fill="#000000" fill-rule="nonzero" cx="68.53" cy="20.74" r="2.75"></circle>
            <circle id="Oval" fill="#000000" fill-rule="nonzero" cx="89.71" cy="25.32" r="2.75"></circle>
            <circle id="Oval" fill="#000000" fill-rule="nonzero" cx="59.66" cy="45.01" r="2.75"></circle>
            <circle id="Oval" fill="#000000" fill-rule="nonzero" cx="44.09" cy="28.07" r="2.75"></circle>
            <circle id="Oval" fill="#000000" fill-rule="nonzero" cx="29.77" cy="43.6" r="2.75"></circle>
            <circle id="Oval" fill="#000000" fill-rule="nonzero" cx="43.86" cy="66.44" r="2.75"></circle>
            <circle id="Oval" fill="#000000" fill-rule="nonzero" cx="22.72" cy="71.51" r="2.75"></circle>
            <circle id="Oval" fill="#000000" fill-rule="nonzero" cx="70.15" cy="63.57" r="2.75"></circle>
            <path d="M93.39,153.3 C93.97,153.1 94.55,152.92 95.14,152.74 C140.91,138.74 185.88,177 180.53,224.56 L172.19,298.81 L117,317.23 L66.11,262.48 C33.59,227.48 46.73,170.16 91.63,153.9 C92.2166667,153.693333 92.8033333,153.493333 93.39,153.3 Z" id="Shape" stroke="#000000" stroke-width="5" fill="#7EFD03" fill-rule="nonzero"></path>
            <circle id="Oval" fill="#000000" fill-rule="nonzero" cx="126.72" cy="241.91" r="2.75"></circle>
            <circle id="Oval" fill="#000000" fill-rule="nonzero" cx="126.03" cy="265.29" r="2.75"></circle>
            <circle id="Oval" fill="#000000" fill-rule="nonzero" cx="107.79" cy="281.7" r="2.75"></circle>
            <circle id="Oval" fill="#000000" fill-rule="nonzero" cx="158.51" cy="242.4" r="2.75"></circle>
            <circle id="Oval" fill="#000000" fill-rule="nonzero" cx="148.78" cy="265.54" r="2.75"></circle>
            <circle id="Oval" fill="#000000" fill-rule="nonzero" cx="106.54" cy="229.51" r="2.75"></circle>
            <circle id="Oval" fill="#000000" fill-rule="nonzero" cx="79.28" cy="236.55" r="2.75"></circle>
            <circle id="Oval" fill="#000000" fill-rule="nonzero" cx="84.68" cy="257.45" r="2.75"></circle>
            <circle id="Oval" fill="#000000" fill-rule="nonzero" cx="106.79" cy="252.75" r="2.75"></circle>
            <circle id="Oval" fill="#000000" fill-rule="nonzero" cx="144.78" cy="223.15" r="2.75"></circle>
            <circle id="Oval" fill="#000000" fill-rule="nonzero" cx="162.75" cy="208.92" r="2.75"></circle>
            <circle id="Oval" fill="#000000" fill-rule="nonzero" cx="144.78" cy="191.5" r="2.75"></circle>
            <circle id="Oval" fill="#000000" fill-rule="nonzero" cx="126.72" cy="174.63" r="2.75"></circle>
            <circle id="Oval" fill="#000000" fill-rule="nonzero" cx="112.03" cy="189.75" r="2.75"></circle>
            <circle id="Oval" fill="#000000" fill-rule="nonzero" cx="97.53" cy="171.88" r="2.75"></circle>
            <circle id="Oval" fill="#000000" fill-rule="nonzero" cx="79.28" cy="186.33" r="2.75"></circle>
            <circle id="Oval" fill="#000000" fill-rule="nonzero" cx="94.95" cy="210.17" r="2.75"></circle>
            <circle id="Oval" fill="#000000" fill-rule="nonzero" cx="70.53" cy="213.76" r="2.75"></circle>
            <circle id="Oval" fill="#000000" fill-rule="nonzero" cx="121.36" cy="208.92" r="2.75"></circle>
            <path d="M266.19,5.47 L264.76,5.47 C227.69,6.41 204.03,45.55 219.62,79.2 L244,131.74 L289,131.74 L313,79 C328.32,45.32 304.6,6.4 267.61,5.46 L266.19,5.47 Z" id="Shape" stroke="#000000" stroke-width="5" fill="#7EFD03" fill-rule="nonzero"></path>
            <circle id="Oval" fill="#000000" fill-rule="nonzero" cx="261.51" cy="94.03" r="2.75"></circle>
            <circle id="Oval" fill="#000000" fill-rule="nonzero" cx="241.17" cy="88.18" r="2.75"></circle>
            <circle id="Oval" fill="#000000" fill-rule="nonzero" cx="273.28" cy="116.67" r="2.75"></circle>
            <circle id="Oval" fill="#000000" fill-rule="nonzero" cx="254.41" cy="113.26" r="2.75"></circle>
            <circle id="Oval" fill="#000000" fill-rule="nonzero" cx="248.54" cy="69.27" r="2.75"></circle>
            <circle id="Oval" fill="#000000" fill-rule="nonzero" cx="280.2" cy="25.57" r="2.75"></circle>
            <circle id="Oval" fill="#000000" fill-rule="nonzero" cx="233.33" cy="56.84" r="2.75"></circle>
            <circle id="Oval" fill="#000000" fill-rule="nonzero" cx="273.28" cy="80.09" r="2.75"></circle>
            <circle id="Oval" fill="#000000" fill-rule="nonzero" cx="293.03" cy="64.32" r="2.75"></circle>
            <circle id="Oval" fill="#000000" fill-rule="nonzero" cx="298.68" cy="45.11" r="2.75"></circle>
            <circle id="Oval" fill="#000000" fill-rule="nonzero" cx="278.99" cy="43.13" r="2.75"></circle>
            <circle id="Oval" fill="#000000" fill-rule="nonzero" cx="297.78" cy="83.42" r="2.75"></circle>
            <circle id="Oval" fill="#000000" fill-rule="nonzero" cx="281.74" cy="96.78" r="2.75"></circle>
            <circle id="Oval" fill="#000000" fill-rule="nonzero" cx="258.16" cy="24.49" r="2.75"></circle>
            <circle id="Oval" fill="#000000" fill-rule="nonzero" cx="255.67" cy="47.11" r="2.75"></circle>
            <circle id="Oval" fill="#000000" fill-rule="nonzero" cx="237" cy="35.62" r="2.75"></circle>
            <circle id="Oval" fill="#000000" fill-rule="nonzero" cx="271.28" cy="61.67" r="2.75"></circle>
            <path d="M407.92,68 L406.92,67 C380.12,41.37 335.67,52.19 322.81,87 L302.7,141.29 L334.47,173.24 L388.76,153.08 C423.44,140.2 434.32,95.94 408.91,69.08 C408.583333,68.7133333 408.253333,68.3533333 407.92,68 Z" id="Shape" stroke="#000000" stroke-width="5" fill="#7EFD03" fill-rule="nonzero"></path>
            <circle id="Oval" fill="#000000" fill-rule="nonzero" cx="338.08" cy="126.6" r="2.75"></circle>
            <circle id="Oval" fill="#000000" fill-rule="nonzero" cx="328.76" cy="107.6" r="2.75"></circle>
            <circle id="Oval" fill="#000000" fill-rule="nonzero" cx="329.21" cy="150.52" r="2.75"></circle>
            <circle id="Oval" fill="#000000" fill-rule="nonzero" cx="319.06" cy="134.25" r="2.75"></circle>
            <circle id="Oval" fill="#000000" fill-rule="nonzero" cx="347.71" cy="100.35" r="2.75"></circle>
            <circle id="Oval" fill="#000000" fill-rule="nonzero" cx="401.36" cy="94.47" r="2.75"></circle>
            <circle id="Oval" fill="#000000" fill-rule="nonzero" cx="346.71" cy="80.74" r="2.75"></circle>
            <circle id="Oval" fill="#000000" fill-rule="nonzero" cx="356.31" cy="125.96" r="2.75"></circle>
            <circle id="Oval" fill="#000000" fill-rule="nonzero" cx="381.26" cy="130" r="2.75"></circle>
            <circle id="Oval" fill="#000000" fill-rule="nonzero" cx="399.29" cy="121.28" r="2.75"></circle>
            <circle id="Oval" fill="#000000" fill-rule="nonzero" cx="387.53" cy="105.37" r="2.75"></circle>
            <circle id="Oval" fill="#000000" fill-rule="nonzero" cx="370.3" cy="146.34" r="2.75"></circle>
            <circle id="Oval" fill="#000000" fill-rule="nonzero" cx="349.62" cy="143.43" r="2.75"></circle>
            <circle id="Oval" fill="#000000" fill-rule="nonzero" cx="387.36" cy="77.42" r="2.75"></circle>
            <circle id="Oval" fill="#000000" fill-rule="nonzero" cx="368.92" cy="90.76" r="2.75"></circle>
            <circle id="Oval" fill="#000000" fill-rule="nonzero" cx="364.9" cy="69.21" r="2.75"></circle>
            <circle id="Oval" fill="#000000" fill-rule="nonzero" cx="368.62" cy="112.1" r="2.75"></circle>
            <path d="M290.2,132.48 L288.2,131.84 C236.31,115.97 185.32,159.35 191.38,213.28 L200.84,297.47 L263.39,318.35 L321.1,256.28 C357.96,216.62 343.1,151.6 292.16,133.16 L290.2,132.48 Z" id="Shape" stroke="#000000" stroke-width="5" fill="#7EFD03" fill-rule="nonzero"></path>
            <circle id="Oval" fill="#1D1D1B" fill-rule="nonzero" cx="249.96" cy="212.51" r="2.75"></circle>
            <circle id="Oval" fill="#1D1D1B" fill-rule="nonzero" cx="239.43" cy="249.65" r="2.75"></circle>
            <circle id="Oval" fill="#1D1D1B" fill-rule="nonzero" cx="249.21" cy="271.65" r="2.75"></circle>
            <circle id="Oval" fill="#1D1D1B" fill-rule="nonzero" cx="272.25" cy="263.2" r="2.75"></circle>
            <circle id="Oval" fill="#1D1D1B" fill-rule="nonzero" cx="265.34" cy="286.92" r="2.75"></circle>
            <circle id="Oval" fill="#1D1D1B" fill-rule="nonzero" cx="210.93" cy="242.35" r="2.75"></circle>
            <circle id="Oval" fill="#1D1D1B" fill-rule="nonzero" cx="222.95" cy="262.8" r="2.75"></circle>
            <circle id="Oval" fill="#1D1D1B" fill-rule="nonzero" cx="295.37" cy="256.1" r="2.75"></circle>
            <circle id="Oval" fill="#1D1D1B" fill-rule="nonzero" cx="254.71" cy="192.25" r="2.75"></circle>
            <circle id="Oval" fill="#1D1D1B" fill-rule="nonzero" cx="259.77" cy="240.36" r="2.75"></circle>
            <circle id="Oval" fill="#1D1D1B" fill-rule="nonzero" cx="225.7" cy="199.28" r="2.75"></circle>
            <circle id="Oval" fill="#1D1D1B" fill-rule="nonzero" cx="204.83" cy="196.58" r="2.75"></circle>
            <circle id="Oval" fill="#1D1D1B" fill-rule="nonzero" cx="214.73" cy="217.87" r="2.75"></circle>
            <circle id="Oval" fill="#1D1D1B" fill-rule="nonzero" cx="233.7" cy="230.18" r="2.75"></circle>
            <circle id="Oval" fill="#1D1D1B" fill-rule="nonzero" cx="281.49" cy="236.11" r="2.75"></circle>
            <circle id="Oval" fill="#1D1D1B" fill-rule="nonzero" cx="305.77" cy="236.55" r="2.75"></circle>
            <circle id="Oval" fill="#1D1D1B" fill-rule="nonzero" cx="303.87" cy="213.73" r="2.75"></circle>
            <circle id="Oval" fill="#1D1D1B" fill-rule="nonzero" cx="303.02" cy="189.03" r="2.75"></circle>
            <circle id="Oval" fill="#1D1D1B" fill-rule="nonzero" cx="324.58" cy="192.5" r="2.75"></circle>
            <circle id="Oval" fill="#1D1D1B" fill-rule="nonzero" cx="324.58" cy="226.15" r="2.75"></circle>
            <circle id="Oval" fill="#1D1D1B" fill-rule="nonzero" cx="281.95" cy="189.34" r="2.75"></circle>
            <circle id="Oval" fill="#1D1D1B" fill-rule="nonzero" cx="284.32" cy="166.45" r="2.75"></circle>
            <circle id="Oval" fill="#1D1D1B" fill-rule="nonzero" cx="272.25" cy="146.33" r="2.75"></circle>
            <circle id="Oval" fill="#1D1D1B" fill-rule="nonzero" cx="307.77" cy="165.19" r="2.75"></circle>
            <circle id="Oval" fill="#1D1D1B" fill-rule="nonzero" cx="242.82" cy="153.56" r="2.75"></circle>
            <circle id="Oval" fill="#1D1D1B" fill-rule="nonzero" cx="261.51" cy="169.19" r="2.75"></circle>
            <circle id="Oval" fill="#1D1D1B" fill-rule="nonzero" cx="236.63" cy="176.97" r="2.75"></circle>
            <circle id="Oval" fill="#1D1D1B" fill-rule="nonzero" cx="216.68" cy="173.97" r="2.75"></circle>
            <circle id="Oval" fill="#1D1D1B" fill-rule="nonzero" cx="276.99" cy="212.49" r="2.75"></circle>
            <path d="M279.9,479.53 L279.9,363.8 C280.240971,331.486367 263.197292,301.480362 235.26831,285.224315 C207.339328,268.968267 172.830672,268.968267 144.90169,285.224315 C116.972708,301.480362 99.929029,331.486367 100.27,363.8 L100.27,479.53 L279.9,479.53 Z" id="Shape" stroke="#000000" stroke-width="5" fill="#7EFD03" fill-rule="nonzero"></path>
            <path d="M156.27,337.9 C156.269993,336.78682 155.598889,335.783444 154.570057,335.358389 C153.541224,334.933333 152.357619,335.17045 151.571918,335.95902 C150.786216,336.747589 150.553412,337.932049 150.982213,338.959327 C151.411013,339.986605 152.416828,340.654048 153.53,340.65 C154.258429,340.650005 154.956879,340.359955 155.471017,339.84394 C155.985155,339.327926 156.272659,338.628424 156.27,337.9 Z" id="Shape" fill="#000000" fill-rule="nonzero"></path>
            <circle id="Oval" fill="#000000" fill-rule="nonzero" cx="129.75" cy="353.25" r="2.75"></circle>
            <circle id="Oval" fill="#000000" fill-rule="nonzero" cx="210.07" cy="341.46" r="2.75"></circle>
            <circle id="Oval" fill="#000000" fill-rule="nonzero" cx="211.7" cy="301.59" r="2.75"></circle>
            <path d="M152.52,374.72 C152.524048,373.606828 151.856605,372.601013 150.829327,372.172213 C149.802049,371.743412 148.617589,371.976216 147.82902,372.761918 C147.04045,373.547619 146.803333,374.731224 147.228389,375.760057 C147.653444,376.788889 148.65682,377.459993 149.77,377.46 C151.284886,377.46001 152.514491,376.234876 152.52,374.72 Z" id="Shape" fill="#000000" fill-rule="nonzero"></path>
            <path d="M121,391.69 C122.518783,391.69 123.75,390.458783 123.75,388.94 C123.75,387.421217 122.518783,386.19 121,386.19 C119.481217,386.19 118.25,387.421217 118.25,388.94 C118.25,390.458783 119.481217,391.69 121,391.69 Z" id="Shape" fill="#000000" fill-rule="nonzero"></path>
            <circle id="Oval" fill="#000000" fill-rule="nonzero" cx="152.02" cy="409.61" r="2.75"></circle>
            <circle id="Oval" fill="#000000" fill-rule="nonzero" cx="123.27" cy="463.91" r="2.75"></circle>
            <circle id="Oval" fill="#000000" fill-rule="nonzero" cx="177.72" cy="463.91" r="2.75"></circle>
            <circle id="Oval" fill="#000000" fill-rule="nonzero" cx="152.02" cy="444.5" r="2.75"></circle>
            <circle id="Oval" fill="#000000" fill-rule="nonzero" cx="121.03" cy="424.18" r="2.75"></circle>
            <circle id="Oval" fill="#000000" fill-rule="nonzero" cx="179.96" cy="351.01" r="2.75"></circle>
            <circle id="Oval" fill="#000000" fill-rule="nonzero" cx="134.46" cy="322.57" r="2.75"></circle>
            <circle id="Oval" fill="#000000" fill-rule="nonzero" cx="157.26" cy="302.35" r="2.75"></circle>
            <circle id="Oval" fill="#000000" fill-rule="nonzero" cx="258.02" cy="374.72" r="2.75"></circle>
            <circle id="Oval" fill="#000000" fill-rule="nonzero" cx="233.03" cy="426.43" r="2.75"></circle>
            <circle id="Oval" fill="#000000" fill-rule="nonzero" cx="207.33" cy="415.61" r="2.75"></circle>
            <circle id="Oval" fill="#000000" fill-rule="nonzero" cx="233.03" cy="465.7" r="2.75"></circle>
            <circle id="Oval" fill="#000000" fill-rule="nonzero" cx="209.57" cy="447.99" r="2.75"></circle>
            <circle id="Oval" fill="#000000" fill-rule="nonzero" cx="182.21" cy="435.87" r="2.75"></circle>
            <circle id="Oval" fill="#000000" fill-rule="nonzero" cx="233.03" cy="361.92" r="2.75"></circle>
            <circle id="Oval" fill="#000000" fill-rule="nonzero" cx="253.71" cy="346.62" r="2.75"></circle>
            <path d="M233,388.44 C231.481217,388.44 230.25,389.671217 230.25,391.19 C230.25,392.708783 231.481217,393.94 233,393.94 C234.518783,393.94 235.75,392.708783 235.75,391.19 C235.75,389.671217 234.518783,388.44 233,388.44 Z" id="Shape" fill="#000000" fill-rule="nonzero"></path>
            <circle id="Oval" fill="#000000" fill-rule="nonzero" cx="262.51" cy="411.85" r="2.75"></circle>
            <circle id="Oval" fill="#000000" fill-rule="nonzero" cx="255.77" cy="445.74" r="2.75"></circle>
            <circle id="Oval" fill="#000000" fill-rule="nonzero" cx="230.58" cy="322.57" r="2.75"></circle>
            <circle id="Oval" fill="#000000" fill-rule="nonzero" cx="182.96" cy="318.42" r="2.75"></circle>
            <circle id="Oval" fill="#000000" fill-rule="nonzero" cx="184.96" cy="295.28" r="2.75"></circle>
            <path d="M166.49,378.68 C166.49,373.709437 170.519437,369.68 175.49,369.68 C180.460563,369.68 184.49,373.709437 184.49,378.68" id="Shape" stroke="#000000" stroke-width="5"></path>
            <path d="M195.72,378.68 C195.72,373.709437 199.749437,369.68 204.72,369.68 C209.690563,369.68 213.72,373.709437 213.72,378.68" id="Shape" stroke="#000000" stroke-width="5"></path>
            <path d="M171,388.85 C174.972704,395.642592 182.250966,399.817509 190.12,399.817509 C197.989034,399.817509 205.267296,395.642592 209.24,388.85" id="Shape" stroke="#000000" stroke-width="5"></path>
        </g>
    </g>
</svg>