
<svg width="398px" height="699px" viewBox="0 0 398 699" version="1.1" xmlns="http://www.w3.org/2000/svg" xmlns:xlink="http://www.w3.org/1999/xlink">
    <!-- Generator: Sketch 49.3 (51167) - http://www.bohemiancoding.com/sketch -->
    <desc>Created with Sketch.</desc>
    <defs></defs>
    <g id="Page-1" stroke="none" stroke-width="1" fill="none" fill-rule="evenodd">
        <g id="FriendlyCacti_Elephant" stroke-width="5">
            <path d="M272,695.73 L272,384.59 C334.408177,384.59 385,333.998177 385,271.59 L385,248.22 C385,227.68053 368.34947,211.03 347.81,211.03 C327.27053,211.03 310.62,227.68053 310.62,248.22 C310.614478,268.761087 293.961088,285.410001 273.42,285.41 L273.42,87.05 C273.42,45.9710603 240.11894,12.67 199.04,12.67 C157.96106,12.67 124.66,45.9710603 124.66,87.05 L124.66,186.23 C114.781818,186.240625 105.30502,182.321922 98.3191481,175.337926 C91.3332764,168.35393 87.412028,158.878185 87.42,149 C87.42,128.449484 70.7605155,111.79 50.21,111.79 C29.6594845,111.79 13,128.449484 13,149 L13,172.4 C13,234.808177 63.5918233,285.4 126,285.4 L126,695.73 L272,695.73 Z" id="Shape" stroke="#000000" fill="#7EFD03" fill-rule="nonzero"></path>
            <path d="M199,12.67 L199,0.27" id="Shape" stroke="#000000" fill="#7EFD03" fill-rule="nonzero"></path>
            <path d="M161.81,22.63 L155.61,11.9" id="Shape" stroke="#000000" fill="#7EFD03" fill-rule="nonzero"></path>
            <path d="M134.58,49.86 L123.85,43.66" id="Shape" stroke="#000000" fill="#7EFD03" fill-rule="nonzero"></path>
            <path d="M124.62,87.05 L112.22,87.05" id="Shape" stroke="#000000" fill="#7EFD03" fill-rule="nonzero"></path>
            <path d="M124.62,136.64 L112.22,136.64" id="Shape" stroke="#000000" fill="#7EFD03" fill-rule="nonzero"></path>
            <path d="M124.62,335 L112.22,335" id="Shape" stroke="#000000" fill="#7EFD03" fill-rule="nonzero"></path>
            <path d="M124.62,384.59 L112.22,384.59" id="Shape" stroke="#000000" fill="#7EFD03" fill-rule="nonzero"></path>
            <path d="M93.18,124.24 L82.44,130.44" id="Shape" stroke="#000000" fill="#7EFD03" fill-rule="nonzero"></path>
            <path d="M50.23,99.45 L50.23,111.85" id="Shape" stroke="#000000" fill="#7EFD03" fill-rule="nonzero"></path>
            <path d="M7.29,124.24 L18.02,130.44" id="Shape" stroke="#000000" fill="#7EFD03" fill-rule="nonzero"></path>
            <path d="M390.71,223.42 L379.98,229.62" id="Shape" stroke="#000000" fill="#7EFD03" fill-rule="nonzero"></path>
            <path d="M347.77,198.63 L347.77,211.02" id="Shape" stroke="#000000" fill="#7EFD03" fill-rule="nonzero"></path>
            <path d="M304.82,223.42 L315.56,229.62" id="Shape" stroke="#000000" fill="#7EFD03" fill-rule="nonzero"></path>
            <path d="M124.62,434.17 L112.22,434.17" id="Shape" stroke="#000000" fill="#7EFD03" fill-rule="nonzero"></path>
            <path d="M124.62,483.76 L112.22,483.76" id="Shape" stroke="#000000" fill="#7EFD03" fill-rule="nonzero"></path>
            <path d="M285.78,136.64 L273.38,136.64" id="Shape" stroke="#000000" fill="#7EFD03" fill-rule="nonzero"></path>
            <path d="M285.78,186.23 L273.38,186.23" id="Shape" stroke="#000000" fill="#7EFD03" fill-rule="nonzero"></path>
            <path d="M285.78,235.82 L273.38,235.82" id="Shape" stroke="#000000" fill="#7EFD03" fill-rule="nonzero"></path>
            <path d="M285.78,434.17 L273.38,434.17" id="Shape" stroke="#000000" fill="#7EFD03" fill-rule="nonzero"></path>
            <path d="M285.78,483.85 L273.38,483.85" id="Shape" stroke="#000000" fill="#7EFD03" fill-rule="nonzero"></path>
            <path d="M285.78,533.52 L273.38,533.52" id="Shape" stroke="#000000" fill="#7EFD03" fill-rule="nonzero"></path>
            <path d="M285.78,583.19 L273.38,583.19" id="Shape" stroke="#000000" fill="#7EFD03" fill-rule="nonzero"></path>
            <path d="M285.78,632.86 L273.38,632.86" id="Shape" stroke="#000000" fill="#7EFD03" fill-rule="nonzero"></path>
            <path d="M285.78,682.53 L273.38,682.53" id="Shape" stroke="#000000" fill="#7EFD03" fill-rule="nonzero"></path>
            <path d="M124.62,533.52 L112.22,533.52" id="Shape" stroke="#000000" fill="#7EFD03" fill-rule="nonzero"></path>
            <path d="M124.62,583.19 L112.22,583.19" id="Shape" stroke="#000000" fill="#7EFD03" fill-rule="nonzero"></path>
            <path d="M124.62,632.86 L112.22,632.86" id="Shape" stroke="#000000" fill="#7EFD03" fill-rule="nonzero"></path>
            <path d="M124.62,682.53 L112.22,682.53" id="Shape" stroke="#000000" fill="#7EFD03" fill-rule="nonzero"></path>
            <path d="M285.78,87.05 L273.38,87.05" id="Shape" stroke="#000000" fill="#7EFD03" fill-rule="nonzero"></path>
            <path d="M274.15,43.66 L263.42,49.86" id="Shape" stroke="#000000" fill="#7EFD03" fill-rule="nonzero"></path>
            <path d="M242.39,11.9 L236.19,22.63" id="Shape" stroke="#000000" fill="#7EFD03" fill-rule="nonzero"></path>
            <path d="M13.04,172.4 L0.64,172.4" id="Shape" stroke="#000000" fill="#7EFD03" fill-rule="nonzero"></path>
            <path d="M19.86,211.05 L8.21,215.29" id="Shape" stroke="#000000" fill="#7EFD03" fill-rule="nonzero"></path>
            <path d="M39.48,245.04 L29.98,253.01" id="Shape" stroke="#000000" fill="#7EFD03" fill-rule="nonzero"></path>
            <path d="M69.54,270.27 L63.34,281" id="Shape" stroke="#000000" fill="#7EFD03" fill-rule="nonzero"></path>
            <path d="M106.42,283.69 L104.27,295.9" id="Shape" stroke="#000000" fill="#7EFD03" fill-rule="nonzero"></path>
            <path d="M384.96,271.58 L397.36,271.58" id="Shape" stroke="#000000" fill="#7EFD03" fill-rule="nonzero"></path>
            <path d="M378.14,310.23 L389.79,314.47" id="Shape" stroke="#000000" fill="#7EFD03" fill-rule="nonzero"></path>
            <path d="M358.52,344.22 L368.02,352.19" id="Shape" stroke="#000000" fill="#7EFD03" fill-rule="nonzero"></path>
            <path d="M328.46,369.45 L334.66,380.18" id="Shape" stroke="#000000" fill="#7EFD03" fill-rule="nonzero"></path>
            <path d="M291.58,382.87 L293.73,395.08" id="Shape" stroke="#000000" fill="#7EFD03" fill-rule="nonzero"></path>
            <path d="M194.62,663.98 L203.38,655.21" id="Shape" stroke="#1D1D1B" stroke-linejoin="round"></path>
            <path d="M194.62,620.94 L203.38,612.17" id="Shape" stroke="#1D1D1B" stroke-linejoin="round"></path>
            <path d="M194.62,577.9 L203.38,569.13" id="Shape" stroke="#1D1D1B" stroke-linejoin="round"></path>
            <path d="M194.62,534.85 L203.38,526.09" id="Shape" stroke="#1D1D1B" stroke-linejoin="round"></path>
            <path d="M194.62,491.81 L203.38,483.05" id="Shape" stroke="#1D1D1B" stroke-linejoin="round"></path>
            <path d="M194.62,448.77 L203.38,440.01" id="Shape" stroke="#1D1D1B" stroke-linejoin="round"></path>
            <path d="M194.62,405.73 L203.38,396.97" id="Shape" stroke="#1D1D1B" stroke-linejoin="round"></path>
            <path d="M194.62,362.69 L203.38,353.92" id="Shape" stroke="#1D1D1B" stroke-linejoin="round"></path>
            <path d="M194.62,319.65 L203.38,310.88" id="Shape" stroke="#1D1D1B" stroke-linejoin="round"></path>
            <path d="M194.62,276.61 L203.38,267.84" id="Shape" stroke="#1D1D1B" stroke-linejoin="round"></path>
            <path d="M194.62,233.57 L203.38,224.8" id="Shape" stroke="#1D1D1B" stroke-linejoin="round"></path>
            <path d="M194.62,190.53 L203.38,181.76" id="Shape" stroke="#1D1D1B" stroke-linejoin="round"></path>
            <path d="M231.57,663.98 L240.34,655.21" id="Shape" stroke="#1D1D1B" stroke-linejoin="round"></path>
            <path d="M231.57,620.94 L240.34,612.17" id="Shape" stroke="#1D1D1B" stroke-linejoin="round"></path>
            <path d="M231.57,577.9 L240.34,569.13" id="Shape" stroke="#1D1D1B" stroke-linejoin="round"></path>
            <path d="M231.57,534.85 L240.34,526.09" id="Shape" stroke="#1D1D1B" stroke-linejoin="round"></path>
            <path d="M231.57,491.81 L240.34,483.05" id="Shape" stroke="#1D1D1B" stroke-linejoin="round"></path>
            <path d="M231.57,448.77 L240.34,440.01" id="Shape" stroke="#1D1D1B" stroke-linejoin="round"></path>
            <path d="M231.57,405.73 L240.34,396.97" id="Shape" stroke="#1D1D1B" stroke-linejoin="round"></path>
            <path d="M231.57,362.69 L240.34,353.92" id="Shape" stroke="#1D1D1B" stroke-linejoin="round"></path>
            <path d="M269.49,362.69 L278.25,353.92" id="Shape" stroke="#1D1D1B" stroke-linejoin="round"></path>
            <path d="M306.44,362.69 L315.21,353.92" id="Shape" stroke="#1D1D1B" stroke-linejoin="round"></path>
            <path d="M231.57,319.65 L240.34,310.88" id="Shape" stroke="#1D1D1B" stroke-linejoin="round"></path>
            <path d="M231.57,276.61 L240.34,267.84" id="Shape" stroke="#1D1D1B" stroke-linejoin="round"></path>
            <path d="M231.57,233.57 L240.34,224.8" id="Shape" stroke="#1D1D1B" stroke-linejoin="round"></path>
            <path d="M231.57,190.53 L240.34,181.76" id="Shape" stroke="#1D1D1B" stroke-linejoin="round"></path>
            <path d="M156.69,663.98 L165.46,655.21" id="Shape" stroke="#1D1D1B" stroke-linejoin="round"></path>
            <path d="M156.69,620.94 L165.46,612.17" id="Shape" stroke="#1D1D1B" stroke-linejoin="round"></path>
            <path d="M156.69,577.9 L165.46,569.13" id="Shape" stroke="#1D1D1B" stroke-linejoin="round"></path>
            <path d="M156.69,534.85 L165.46,526.09" id="Shape" stroke="#1D1D1B" stroke-linejoin="round"></path>
            <path d="M156.69,491.81 L165.46,483.05" id="Shape" stroke="#1D1D1B" stroke-linejoin="round"></path>
            <path d="M156.69,448.77 L165.46,440.01" id="Shape" stroke="#1D1D1B" stroke-linejoin="round"></path>
            <path d="M156.69,405.73 L165.46,396.97" id="Shape" stroke="#1D1D1B" stroke-linejoin="round"></path>
            <path d="M156.69,362.69 L165.46,353.92" id="Shape" stroke="#1D1D1B" stroke-linejoin="round"></path>
            <path d="M156.69,319.65 L165.46,310.88" id="Shape" stroke="#1D1D1B" stroke-linejoin="round"></path>
            <path d="M269.49,319.65 L278.25,310.88" id="Shape" stroke="#1D1D1B" stroke-linejoin="round"></path>
            <path d="M306.44,319.65 L315.21,310.88" id="Shape" stroke="#1D1D1B" stroke-linejoin="round"></path>
            <path d="M343.4,319.65 L352.16,310.88" id="Shape" stroke="#1D1D1B" stroke-linejoin="round"></path>
            <path d="M343.4,276.5 L352.16,267.73" id="Shape" stroke="#1D1D1B" stroke-linejoin="round"></path>
            <path d="M343.4,237.95 L352.16,229.19" id="Shape" stroke="#1D1D1B" stroke-linejoin="round"></path>
            <path d="M156.69,276.61 L165.46,267.84" id="Shape" stroke="#1D1D1B" stroke-linejoin="round"></path>
            <path d="M156.69,233.57 L165.46,224.8" id="Shape" stroke="#1D1D1B" stroke-linejoin="round"></path>
            <path d="M83.91,208.21 L92.68,199.44" id="Shape" stroke="#1D1D1B" stroke-linejoin="round"></path>
            <path d="M83.91,252.41 L92.68,243.64" id="Shape" stroke="#1D1D1B" stroke-linejoin="round"></path>
            <path d="M120.87,233.57 L129.63,224.8" id="Shape" stroke="#1D1D1B" stroke-linejoin="round"></path>
            <path d="M45.99,230.57 L54.75,221.8" id="Shape" stroke="#1D1D1B" stroke-linejoin="round"></path>
            <path d="M45.99,187.53 L54.75,178.76" id="Shape" stroke="#1D1D1B" stroke-linejoin="round"></path>
            <path d="M45.99,144.49 L54.75,135.72" id="Shape" stroke="#1D1D1B" stroke-linejoin="round"></path>
            <path d="M156.69,190.53 L165.46,181.76" id="Shape" stroke="#1D1D1B" stroke-linejoin="round"></path>
            <path d="M199,54.44 L199,42.04" id="Shape" stroke="#1D1D1B" stroke-linejoin="round"></path>
            <path d="M231.57,67.63 L240.34,58.86" id="Shape" stroke="#1D1D1B" stroke-linejoin="round"></path>
            <path d="M165.46,67.63 L156.69,58.86" id="Shape" stroke="#1D1D1B" stroke-linejoin="round"></path>
            <path d="M173.91,128 C177.591728,138.714258 187.670814,145.908353 199,145.908353 C210.329186,145.908353 220.408272,138.714258 224.09,128" id="Shape" stroke="#1D1D1B" stroke-linejoin="round"></path>
            <path d="M165.66,112.39 C165.852905,105.517465 171.479759,100.046336 178.355,100.046336 C185.230241,100.046336 190.857095,105.517465 191.05,112.39" id="Shape" stroke="#1D1D1B" stroke-linejoin="round"></path>
            <path d="M207,112.39 C207.192905,105.517465 212.819759,100.046336 219.695,100.046336 C226.570241,100.046336 232.197095,105.517465 232.39,112.39" id="Shape" stroke="#1D1D1B" stroke-linejoin="round"></path>
        </g>
    </g>
</svg>