
<svg width="196px" height="425px" viewBox="0 0 196 425" version="1.1" xmlns="http://www.w3.org/2000/svg" xmlns:xlink="http://www.w3.org/1999/xlink">
    <!-- Generator: Sketch 49.3 (51167) - http://www.bohemiancoding.com/sketch -->
    <desc>Created with Sketch.</desc>
    <defs></defs>
    <g id="Page-1" stroke="none" stroke-width="1" fill="none" fill-rule="evenodd">
        <g id="FriendlyCacti_Eulychnia" transform="translate(1.000000, 0.000000)" fill="#7EFD03" fill-rule="nonzero" stroke-width="5">
            <path d="M53.27,339 C38.5703959,338.849961 26.0837285,349.722454 24.2104388,364.302977 C22.3371491,378.8835 31.6698756,392.559324 45.93,396.13 L131.17,418.45 C141.203804,421.079475 151.87823,418.156239 159.172324,410.781447 C166.466418,403.406655 169.272035,392.700714 166.532324,382.696447 C163.792614,372.69218 155.923804,364.909474 145.89,362.28 L60.65,340 C58.2433807,339.349988 55.7628177,339.013868 53.27,339 Z" id="Shape" stroke="#000000"></path>
            <path d="M24.86,421.87 C24.95,421.47 25.04,421.08 25.15,420.68 C27.1039289,413.235939 31.9367571,406.873863 38.5840498,402.995025 C45.2313424,399.116187 53.1478663,398.038743 60.59,400 L144.29,421.92 L24.86,421.87 Z" id="Shape" stroke="#000000" stroke-linejoin="round"></path>
            <path d="M53.27,278.86 C38.5543966,278.688534 26.0434945,289.56649 24.1684591,304.163155 C22.2934237,318.75982 31.6488221,332.446643 45.93,336 L131.17,358.33 C146.683678,362.394815 162.555183,353.113678 166.619999,337.6 C170.684815,322.086321 161.403678,306.214816 145.89,302.15 L60.65,279.83 C58.2420324,279.190225 55.7615059,278.864194 53.27,278.86 Z" id="Shape" stroke="#000000"></path>
            <path d="M53.27,218.73 C38.5703959,218.579961 26.0837285,229.452454 24.2104388,244.032977 C22.3371491,258.6135 31.6698756,272.289324 45.93,275.86 L131.17,298.18 C141.205591,300.809475 151.881667,297.885286 159.176654,290.508947 C166.471642,283.132608 169.277258,272.424761 166.536654,262.418947 C163.796051,252.413133 155.925591,244.629474 145.89,242 L60.65,219.67 C58.2397904,219.045106 55.7599,218.72924 53.27,218.73 Z" id="Shape" stroke="#000000"></path>
            <path d="M53.27,158.59 C38.5703959,158.439961 26.0837285,169.312454 24.2104388,183.892977 C22.3371491,198.4735 31.6698756,212.149324 45.93,215.72 L131.17,238.05 C146.683678,242.114815 162.555183,232.833678 166.619999,217.32 C170.684815,201.806321 161.403678,185.934816 145.89,181.87 L60.65,159.55 C58.241591,158.9136 55.7610716,158.590931 53.27,158.59 Z" id="Shape" stroke="#000000"></path>
            <path d="M53.27,98.46 C38.5703959,98.3099613 26.0837285,109.182454 24.2104388,123.762977 C22.3371491,138.3435 31.6698756,152.019324 45.93,155.59 L131.17,177.91 C146.680917,181.974816 162.550184,172.695917 166.615,157.185 C170.679816,141.674083 161.400917,125.804816 145.89,121.74 L60.65,99.41 C58.2402246,98.7817331 55.7603274,98.4625051 53.27,98.46 Z" id="Shape" stroke="#000000"></path>
            <path d="M53.27,38.32 C38.5703959,38.1699613 26.0837285,49.0424537 24.2104388,63.6229769 C22.3371491,78.2035001 31.6698756,91.8793244 45.93,95.45 L131.17,117.78 C146.683678,121.844815 162.555183,112.563678 166.619999,97.0499998 C170.684815,81.5363215 161.403678,65.6648161 145.89,61.6 L60.65,39.28 C58.241591,38.6436002 55.7610716,38.3209311 53.27,38.32 Z" id="Shape" stroke="#000000"></path>
            <path d="M95.91,48.51 L95.91,0.13" id="Shape" stroke="#FF0DBD"></path>
            <path d="M95.91,48.51 L114.2,3.72" id="Shape" stroke="#FF0DBD"></path>
            <path d="M95.91,48.51 L129.78,13.96" id="Shape" stroke="#FF0DBD"></path>
            <path d="M131.17,117.78 L181.62,118.73" id="Shape" stroke="#FF0DBD"></path>
            <path d="M131.17,117.78 L179.76,131.38" id="Shape" stroke="#FF0DBD"></path>
            <path d="M60.65,99.41 L7.63,98.46" id="Shape" stroke="#FF0DBD"></path>
            <path d="M60.65,99.41 L9.06,87.18" id="Shape" stroke="#FF0DBD"></path>
            <path d="M72.28,130.13 C73.5585394,125.192575 78.5975744,122.226461 83.5349999,123.505001 C88.4724253,124.78354 91.4385388,129.822574 90.16,134.76" id="Shape" stroke="#000000"></path>
            <path d="M101.36,137.66 C102.638539,132.722574 107.677574,129.756461 112.615,131.035 C117.552426,132.313539 120.518539,137.352574 119.24,142.29" id="Shape" stroke="#000000"></path>
            <path d="M102.12,145.73 C100.844222,150.667425 95.8074256,153.635777 90.8700001,152.359999 C85.9325747,151.084222 82.9642226,146.047426 84.24,141.11" id="Shape" stroke="#000000"></path>
            <path d="M145.89,181.87 L193.62,192.45" id="Shape" stroke="#FF0DBD"></path>
            <path d="M145.89,181.87 L193.53,170.9" id="Shape" stroke="#FF0DBD"></path>
            <path d="M48.11,156.49 L0.38,167.06" id="Shape" stroke="#FF0DBD"></path>
            <path d="M48.11,156.49 L0.47,145.52" id="Shape" stroke="#FF0DBD"></path>
            <path d="M145.89,300.53 L193.62,311.11" id="Shape" stroke="#FF0DBD"></path>
            <path d="M145.89,300.53 L193.53,289.56" id="Shape" stroke="#FF0DBD"></path>
            <path d="M48.11,277.88 L0.38,288.45" id="Shape" stroke="#FF0DBD"></path>
            <path d="M48.11,277.88 L0.47,266.91" id="Shape" stroke="#FF0DBD"></path>
            <path d="M138.85,239 L186.98,241.75" id="Shape" stroke="#FF0DBD"></path>
            <path d="M53.27,218.73 L4.99,211.2" id="Shape" stroke="#FF0DBD"></path>
            <path d="M138.85,359.02 L186.98,361.77" id="Shape" stroke="#FF0DBD"></path>
            <path d="M53.27,338.75 L4.99,331.22" id="Shape" stroke="#FF0DBD"></path>
        </g>
    </g>
</svg>