<svg width="246px" height="216px" viewBox="0 0 246 216" version="1.1" xmlns="http://www.w3.org/2000/svg" xmlns:xlink="http://www.w3.org/1999/xlink">
    <!-- Generator: Sketch 49.3 (51167) - http://www.bohemiancoding.com/sketch -->
    <desc>Created with Sketch.</desc>
    <defs></defs>
    <g id="Page-1" stroke="none" stroke-width="1" fill="none" fill-rule="evenodd">
        <g id="FriendlyCacti_Echinocactus-Grusonii" fill="#7EFD03" fill-rule="nonzero" stroke="#000000" stroke-width="5">
            <path d="M123,17.88 L123,0.54" id="Shape"></path>
            <path d="M228.33,123.22 L245.68,123.22" id="Shape"></path>
            <path d="M0.32,123.22 L17.67,123.22" id="Shape"></path>
            <path d="M197.48,197.7 L209.74,209.96" id="Shape"></path>
            <path d="M36.26,36.47 L48.52,48.73" id="Shape"></path>
            <path d="M48.52,197.7 L36.26,209.96" id="Shape"></path>
            <path d="M209.74,36.47 L197.48,48.73" id="Shape"></path>
            <path d="M26.1,164.52 L10.15,171.32" id="Shape"></path>
            <path d="M235.85,75.11 L219.9,81.91" id="Shape"></path>
            <path d="M25.57,83.19 L9.53,76.6" id="Shape"></path>
            <path d="M236.47,169.83 L220.43,163.24" id="Shape"></path>
            <path d="M80.7,26.75 L73.73,10.87" id="Shape"></path>
            <path d="M162.83,25.7 L169.39,9.65" id="Shape"></path>
            <path d="M69.21,213.46 C36.3533564,193.96123 16.6393814,158.192095 17.7,120 C19.25,62.7 66.92,16.92 124.24,17.58 C171.438109,18.147099 212.498456,50.0387383 224.727282,95.6286379 C236.956107,141.218537 217.368341,189.378149 176.79,213.49 L69.21,213.46 Z" id="Shape"></path>
            <path d="M177.36,56.88 L156.23,78.01" id="Shape"></path>
            <path d="M177.36,168.42 L156.23,189.55" id="Shape"></path>
            <path d="M68.64,56.88 L89.77,78.01" id="Shape"></path>
            <path d="M202.31,112.65 L181.18,133.78" id="Shape"></path>
            <path d="M43.69,112.65 L64.82,133.78" id="Shape"></path>
            <path d="M68.64,168.42 L89.77,189.55" id="Shape"></path>
            <path d="M100.44,142.87 C103.755496,152.498606 112.816554,158.961731 123,158.961731 C133.183446,158.961731 142.244504,152.498606 145.56,142.87" id="Shape"></path>
            <path d="M93,128 C93,121.698431 98.108431,116.59 104.41,116.59 C110.711569,116.59 115.82,121.698431 115.82,128" id="Shape"></path>
            <path d="M130.15,128 C130.15,121.690147 135.265147,116.575 141.575,116.575 C147.884853,116.575 153,121.690147 153,128" id="Shape"></path>
            <path d="M141.56,116.6 L141.56,109.67" id="Shape"></path>
            <path d="M151.44,122.31 L157,116.74" id="Shape"></path>
            <path d="M131.94,121.88 L126.38,116.31" id="Shape"></path>
            <path d="M104.31,116.6 L104.31,109.67" id="Shape"></path>
            <path d="M114.18,122.31 L119.75,116.74" id="Shape"></path>
            <path d="M94.69,121.88 L89.13,116.31" id="Shape"></path>
            <path d="M123,182.42 L123,200.91" id="Shape"></path>
            <path d="M123,43.27 L123,73.16" id="Shape"></path>
        </g>
    </g>
</svg>