
<svg width="194px" height="192px" viewBox="0 0 194 192" version="1.1" xmlns="http://www.w3.org/2000/svg" xmlns:xlink="http://www.w3.org/1999/xlink">
    <!-- Generator: Sketch 49.3 (51167) - http://www.bohemiancoding.com/sketch -->
    <desc>Created with Sketch.</desc>
    <defs></defs>
    <g id="Page-1" stroke="none" stroke-width="1" fill="none" fill-rule="evenodd">
        <g id="FriendlyCacti_Peyote" transform="translate(2.000000, 3.000000)" fill-rule="nonzero">
            <path d="M47,185.58 C17.6623583,168.188294 0.0553380038,136.262173 1,102.17 C2.38,51.05 44.91,10.17 96.05,10.79 C138.165422,11.2789099 174.814893,39.7224686 185.740903,80.3988758 C196.666913,121.075283 179.202138,164.054364 143,185.58 L47,185.58 Z" id="Shape" stroke="#000000" stroke-width="5" fill="#7EFD03"></path>
            <path d="M103.42,62.69 C95.28,72.09 83.42,61.8 75.25,71.21 C67.08,80.62 79,90.91 70.85,100.32 C62.7,109.73 50.85,99.44 42.67,108.85 C34.49,118.26 46.42,128.55 38.27,137.96 C30.12,147.37 18.27,137.08 10.09,146.49" id="Shape" stroke="#000000" stroke-width="5" fill="#7EFD03"></path>
            <path d="M102.27,56.26 C110.27,65.81 98.16,75.88 106.12,85.44 C114.08,95 126.12,84.92 134.12,94.44 C142.12,103.96 130,114.11 138,123.67 C146,133.23 158,123.16 166,132.72 C174,142.28 161.89,152.35 169.87,161.91" id="Shape" stroke="#000000" stroke-width="5" fill="#7EFD03"></path>
            <path d="M161,67.11 C161.05,64.25 157.9,53.92 113.33,59.23 C148.6,31.47 143.53,21.94 141.47,19.95 C139.41,17.96 129.95,12.82 102.19,48.09 C107.5,3.52 97.19,0.37 94.31,0.42 C91.43,0.47 81.12,3.52 86.44,48.09 C58.67,12.82 49.14,17.89 47.15,19.95 C45.16,22.01 40.02,31.47 75.3,59.23 C30.72,53.92 27.57,64.23 27.62,67.11 C27.67,69.99 30.72,80.3 75.3,74.98 C40.02,102.74 45.1,112.27 47.15,114.26 C49.2,116.25 58.67,121.4 86.44,86.12 C81.12,130.7 91.44,133.84 94.31,133.8 C97.18,133.76 107.5,130.7 102.19,86.12 C129.95,121.4 139.48,116.32 141.47,114.26 C143.46,112.2 148.6,102.74 113.33,74.98 C157.94,80.3 161.09,70 161,67.11 Z" id="Shape" stroke="#000000" stroke-width="5" fill="#FF0DBD"></path>
            <circle id="Oval" stroke="#000000" stroke-width="5" fill="#FFFFFF" cx="94.35" cy="68.36" r="18.85"></circle>
            <circle id="Oval" stroke="#000000" stroke-width="5" fill="#FFFFFF" cx="94.35" cy="68.36" r="9.67"></circle>
            <circle id="Oval" fill="#1D1D1B" cx="149.78" cy="146.49" r="2.92"></circle>
            <circle id="Oval" fill="#1D1D1B" cx="124.15" cy="134.49" r="2.92"></circle>
            <circle id="Oval" fill="#1D1D1B" cx="151.3" cy="88.32" r="2.92"></circle>
            <circle id="Oval" fill="#1D1D1B" cx="165.88" cy="110.75" r="2.92"></circle>
            <circle id="Oval" fill="#1D1D1B" cx="172.96" cy="92.48" r="2.92"></circle>
            <circle id="Oval" fill="#1D1D1B" cx="35.17" cy="88.32" r="2.92"></circle>
            <circle id="Oval" fill="#1D1D1B" cx="18.24" cy="108.88" r="2.92"></circle>
            <circle id="Oval" fill="#1D1D1B" cx="56.76" cy="164.59" r="2.92"></circle>
            <circle id="Oval" fill="#1D1D1B" cx="63.07" cy="127.4" r="2.92"></circle>
            <circle id="Oval" fill="#1D1D1B" cx="32.25" cy="154.48" r="2.92"></circle>
            <path d="M74.89,155.39 C74.788816,152.59276 76.2234101,149.963593 78.6304318,148.534945 C81.0374535,147.106297 84.0325465,147.106297 86.4395682,148.534945 C88.8465899,149.963593 90.281184,152.59276 90.18,155.39" id="Shape" stroke="#000000" stroke-width="5" fill="#7EFD03"></path>
            <path d="M99.77,155.39 C99.77,151.165022 103.195022,147.74 107.42,147.74 C111.644978,147.74 115.07,151.165022 115.07,155.39" id="Shape" stroke="#000000" stroke-width="5" fill="#7EFD03"></path>
            <path d="M78.7,164.05 C82.0865886,169.828356 88.28236,173.37859 94.98,173.37859 C101.67764,173.37859 107.873411,169.828356 111.26,164.05" id="Shape" stroke="#000000" stroke-width="5" fill="#7EFD03"></path>
        </g>
    </g>
</svg>