<svg class="sunshine" id="sunshine" data-name="Layer 1" xmlns="http://www.w3.org/2000/svg" viewBox="0 0 90 90"><defs>
<style>.cls-1{fill:none;stroke:#fff;stroke-miterlimit:10;stroke-width:5px;}</style>

</defs><title>FriendlyCacti_</title><circle class="cls-1" cx="45" cy="45" r="32.37"/><path class="cls-1" d="M67.28,44a22.28,22.28,0,0,1-44.56,0"/><path class="cls-1" d="M28.5,37.55a6,6,0,0,1,11.9,0"/><path class="cls-1" d="M49.6,37.55a6,6,0,0,1,11.9,0"/><line class="cls-1" x1="45" y1="12.63" x2="45"/><line class="cls-1" x1="45" y1="90" x2="45" y2="77.37"/><line class="cls-1" x1="77.37" y1="45" x2="90" y2="45"/><line class="cls-1" y1="45" x2="12.63" y2="45"/><line class="cls-1" x1="67.89" y1="67.89" x2="76.82" y2="76.82"/><line class="cls-1" x1="13.18" y1="13.18" x2="22.11" y2="22.11"/><line class="cls-1" x1="22.11" y1="67.89" x2="13.18" y2="76.82"/><line class="cls-1" x1="76.82" y1="13.18" x2="67.89" y2="22.11"/></svg>