<svg class="sydney" id="sydney" data-name="Layer 1" xmlns="http://www.w3.org/2000/svg" viewBox="0 0 151.11 151.11" style="fill:#fff"><title>FriendlyCacti_</title>
<path d="M28.07,131l-6.61-6.44,1.6-1.65,2.44,2.38,7.33-7.53,1.74,1.68-7.33,7.53,2.43,2.38Z"/>
<path d="M27.83,112l1.34,1.87-10.41,7.47-1.34-1.87,4.22-3-.19-.27a2.8,2.8,0,0,1-1.63-.09A3,3,0,0,1,18.48,115a3.49,3.49,0,0,1-.54-1.14,2.52,2.52,0,0,1,0-1.19,2.92,2.92,0,0,1,.53-1.19,4.9,4.9,0,0,1,1.17-1.14L24.24,107l1.35,1.88-4.2,3a2.34,2.34,0,0,0-1,1.27,1.66,1.66,0,0,0,.33,1.42,1.79,1.79,0,0,0,1.45.85,3.07,3.07,0,0,0,1.79-.67Z"/>
<path d="M18.86,104.91a1.85,1.85,0,0,0,.58-.49,1.77,1.77,0,0,0,.33-.69,2.29,2.29,0,0,0,.05-.79,2.36,2.36,0,0,0-.24-.81,2.43,2.43,0,0,0-.84-1.06,1.77,1.77,0,0,0-.94-.28L18,98.53a3.75,3.75,0,0,1,.84.1,3.18,3.18,0,0,1,.95.39,4.06,4.06,0,0,1,1,.81,5.2,5.2,0,0,1,.86,1.32,5.12,5.12,0,0,1,.5,1.83,4,4,0,0,1-.23,1.72,4.3,4.3,0,0,1-1,1.51,5.48,5.48,0,0,1-1.69,1.18l-.1,0a4.88,4.88,0,0,1-1.87.5,4.35,4.35,0,0,1-1.74-.25,4.63,4.63,0,0,1-1.48-.91,4.8,4.8,0,0,1-1.07-1.47,4.33,4.33,0,0,1-.16-3.7,4.26,4.26,0,0,1,.91-1.32,4.66,4.66,0,0,1,1.22-.87L16,98.89Zm-4.06-.48a2.21,2.21,0,0,0,1,1.1,2.12,2.12,0,0,0,1.24.2l-1.85-3.87a1.65,1.65,0,0,0-.66,1.08A2.33,2.33,0,0,0,14.8,104.43Z"/>
<path d="M15.4,76.61,15.62,79l-3.83.34a1.07,1.07,0,0,0-.69.29.94.94,0,0,0-.21.78l.25,2.77L16,82.78l.21,2.4L3.4,86.32,3,81.43a5.51,5.51,0,0,1,.12-1.76,3.58,3.58,0,0,1,.65-1.31,3.26,3.26,0,0,1,1.05-.87,3.57,3.57,0,0,1,1.35-.38l.44,0a2.72,2.72,0,0,1,1.5.29,2.6,2.6,0,0,1,1.16,1.2l.33,0A1.49,1.49,0,0,1,11,77Zm-6.56,6.8-.21-2.3a1.9,1.9,0,0,0-.52-1.29,1.51,1.51,0,0,0-1.2-.36l-.22,0A1.49,1.49,0,0,0,5.63,80a1.75,1.75,0,0,0-.35,1.37l.2,2.3Z"/>
<path d="M11.77,65.24a4.89,4.89,0,0,1,2,.55,4.37,4.37,0,0,1,2.14,2.75,5.16,5.16,0,0,1,.16,1.8,5.26,5.26,0,0,1-.46,1.76,4.57,4.57,0,0,1-1,1.42,4.23,4.23,0,0,1-1.55.92,5.09,5.09,0,0,1-2,.21l-.21,0a4.84,4.84,0,0,1-2-.56,4.23,4.23,0,0,1-1.38-1.16,4.63,4.63,0,0,1-.78-1.59,5.16,5.16,0,0,1-.16-1.8,5.22,5.22,0,0,1,.47-1.75,4.46,4.46,0,0,1,1-1.43,4.34,4.34,0,0,1,1.56-.91,4.69,4.69,0,0,1,2-.21Zm2.07,4.92a2.72,2.72,0,0,0-.08-1,2.2,2.2,0,0,0-1.12-1.39,2.59,2.59,0,0,0-1-.28l-.36,0a2.64,2.64,0,0,0-1,.1,2.18,2.18,0,0,0-.8.46,2.13,2.13,0,0,0-.54.72,2.56,2.56,0,0,0-.25.92,2.45,2.45,0,0,0,.09.94,2.36,2.36,0,0,0,.4.81,2.17,2.17,0,0,0,.72.58,2.34,2.34,0,0,0,1,.28l.37,0a2.42,2.42,0,0,0,1-.1,2.29,2.29,0,0,0,.81-.45,2.48,2.48,0,0,0,.54-.73A2.78,2.78,0,0,0,13.84,70.16Z"/>
<path d="M9.38,55.56l.6-2.22L20.9,56.29a1.43,1.43,0,0,1,.89.65A1.36,1.36,0,0,1,21.91,58L20.5,63.24l-2.12-.57,1.05-3.87a.46.46,0,0,0-.4-.62l-2.16-.59-.09.32a2.48,2.48,0,0,1,.84,2.92A3.26,3.26,0,0,1,17.08,62a2.66,2.66,0,0,1-.92.81,3.09,3.09,0,0,1-1.28.37A4.6,4.6,0,0,1,13.25,63L7.77,61.5l.6-2.22,5,1.35a2.27,2.27,0,0,0,1.58,0,1.7,1.7,0,0,0,.88-1.19,1.76,1.76,0,0,0-.25-1.65A3,3,0,0,0,14,56.81Z"/>
<path d="M20.84,47.79a2.42,2.42,0,0,1,.66,1.45,3.27,3.27,0,0,1-.34,1.54,3.73,3.73,0,0,1-2.31,2,4.5,4.5,0,0,1-1.7.16,5.4,5.4,0,0,1-1.91-.55L15,52.29a5.61,5.61,0,0,1-1.62-1.12,4.42,4.42,0,0,1-1-1.38,3.54,3.54,0,0,1-.31-1.52,3.67,3.67,0,0,1,.36-1.5,3.21,3.21,0,0,1,1-1.27,2.28,2.28,0,0,1,1.33-.41l.15-.3-1-.47,1-2.09L20.6,45c.34.15.57.08.71-.22l.15-.31,2,.94-.68,1.42a1.41,1.41,0,0,1-.76.76,1.2,1.2,0,0,1-1,0ZM19.4,49.38a2.11,2.11,0,0,0,.08-1.75,2.61,2.61,0,0,0-1.39-1.32l-.19-.1A2.69,2.69,0,0,0,16,46a2.28,2.28,0,0,0-1.38,2.91A2.59,2.59,0,0,0,16,50.22l.2.09a2.62,2.62,0,0,0,1.9.24A2.11,2.11,0,0,0,19.4,49.38Z"/>
<path d="M22.44,42.9l1.85-2.6-6.85-4.89-1.79,2.5-1.79-1.27L17,32.26l8.64,6.17L27.35,36l1.79,1.28-4.91,6.88Z"/>
<path d="M36.58,26.7l1-.68L33,19.24l-1,.68L30.67,18l4.64-3.17a5,5,0,0,1,1.49-.7,3.59,3.59,0,0,1,1.37-.09,2.81,2.81,0,0,1,1.2.46,3.34,3.34,0,0,1,1,1l.12.18a2.43,2.43,0,0,1,.49,1.79,3.2,3.2,0,0,1-.77,1.63l.19.27a3.17,3.17,0,0,1,1.8-.1,2.52,2.52,0,0,1,1.5,1.11l.12.18a3.69,3.69,0,0,1,.55,1.24,3,3,0,0,1,0,1.29,3.48,3.48,0,0,1-.59,1.25,4.8,4.8,0,0,1-1.19,1.13l-4.65,3.16Zm0-6.4,1.45-1a2.13,2.13,0,0,0,.85-1,1.22,1.22,0,0,0-.22-1.17l-.06-.09a1.22,1.22,0,0,0-1-.63,2.2,2.2,0,0,0-1.2.43l-1.46,1Zm3,4.36,1.45-1a2.13,2.13,0,0,0,.85-1,1.27,1.27,0,0,0-.23-1.18l-.06-.09a1.27,1.27,0,0,0-1-.64,2.18,2.18,0,0,0-1.22.43l-1.45,1Z"/>
<path d="M53.59,14.78a5.05,5.05,0,0,1,.47,2,4.3,4.3,0,0,1-.36,1.76,4.63,4.63,0,0,1-1,1.45,5.24,5.24,0,0,1-3.26,1.45,4.63,4.63,0,0,1-1.74-.21,4.21,4.21,0,0,1-1.56-.91A4.74,4.74,0,0,1,45,18.64l-.09-.2a4.74,4.74,0,0,1-.46-2,4.15,4.15,0,0,1,.35-1.77,4.53,4.53,0,0,1,1-1.46,5.4,5.4,0,0,1,1.51-1A5.13,5.13,0,0,1,49,11.79a4.31,4.31,0,0,1,1.75.22,4.16,4.16,0,0,1,1.56.92,4.74,4.74,0,0,1,1.16,1.65ZM50.29,19a2.55,2.55,0,0,0,.79-.53,2.38,2.38,0,0,0,.51-.75,2.25,2.25,0,0,0,.16-.9,2.4,2.4,0,0,0-.24-1l-.15-.33a2.43,2.43,0,0,0-.59-.85,2.2,2.2,0,0,0-.78-.48,2.28,2.28,0,0,0-.9-.12,2.54,2.54,0,0,0-.92.23,2.5,2.5,0,0,0-.78.53,2.24,2.24,0,0,0-.68,1.65,2.75,2.75,0,0,0,.24,1l.15.33a2.57,2.57,0,0,0,.59.85,2.24,2.24,0,0,0,.79.48,2.21,2.21,0,0,0,.89.12A2.49,2.49,0,0,0,50.29,19Z"/>
<path d="M54.64,9.55l2.61-.64-.89-3.63,2.23-.55.9,3.62,3.18-.78L63.2,9.7,60,10.49l1,4c.09.36.29.5.61.42L64,14.33l.53,2.13-3.73.92a1.36,1.36,0,0,1-1.72-1.05L57.78,11l-2.61.64Z"/>
<path d="M73.24,14.26a2.37,2.37,0,0,1-.95,1.28,3.13,3.13,0,0,1-1.51.46,3.86,3.86,0,0,1-1.56-.22A3.51,3.51,0,0,1,67.89,15a4.46,4.46,0,0,1-1-1.4,5.7,5.7,0,0,1-.45-1.94l0-.29a5.78,5.78,0,0,1,.19-2,4.58,4.58,0,0,1,.74-1.52,3.52,3.52,0,0,1,1.18-1,3.42,3.42,0,0,1,1.48-.42,3.19,3.19,0,0,1,1.59.23,2.25,2.25,0,0,1,1,1l.33,0L72.9,6.5l2.3-.15.41,6.32c0,.37.2.54.53.52l.35,0,.14,2.19-1.57.1a1.4,1.4,0,0,1-1-.3,1.19,1.19,0,0,1-.45-.92Zm-2.09-.49A2.08,2.08,0,0,0,72.72,13a2.63,2.63,0,0,0,.48-1.86v-.22a2.64,2.64,0,0,0-.72-1.78,2.1,2.1,0,0,0-1.65-.56,2.08,2.08,0,0,0-1.57.77,2.63,2.63,0,0,0-.48,1.86v.22a2.62,2.62,0,0,0,.72,1.78A2.07,2.07,0,0,0,71.15,13.77Z"/>
<path d="M80.39,15.72l-2.29-.26,1-9,2.3.26L81.25,8l.33,0A2.35,2.35,0,0,1,82.71,7a3,3,0,0,1,1.66-.24,3.68,3.68,0,0,1,1.21.34,3,3,0,0,1,.94.76,3.11,3.11,0,0,1,.55,1.19,4.54,4.54,0,0,1,.07,1.63l-.63,5.71-2.3-.26L84.79,11a2.32,2.32,0,0,0-.3-1.57,1.65,1.65,0,0,0-1.28-.7,1.75,1.75,0,0,0-1.59.51,3.05,3.05,0,0,0-.7,1.78Z"/>
<path d="M89.42,14.78l3,.87,1.33-4.49L91,10.35l.62-2.11,5,1.47-2,6.6,2.53.75-.63,2.11L88.8,16.89Zm8.43-7.49a1.75,1.75,0,0,1-.84,1,1.76,1.76,0,0,1-.64.19,1.73,1.73,0,0,1-.68,0,1.57,1.57,0,0,1-.61-.33,1.63,1.63,0,0,1-.43-.51,1.66,1.66,0,0,1-.2-.63,1.68,1.68,0,0,1,.06-.7,1.76,1.76,0,0,1,.33-.62,1.92,1.92,0,0,1,.52-.42A1.85,1.85,0,0,1,96,5.07a1.65,1.65,0,0,1,.69.06,1.74,1.74,0,0,1,.6.32,1.88,1.88,0,0,1,.43.51,1.71,1.71,0,0,1,.2.64A1.62,1.62,0,0,1,97.85,7.29Z"/>
<path d="M108.2,21.08a4.33,4.33,0,0,1-2.48,1.66,4.6,4.6,0,0,1-3.22-.52A5.31,5.31,0,0,1,101,21.1a4.35,4.35,0,0,1-1-1.48,4.18,4.18,0,0,1-.25-1.74,5,5,0,0,1,.56-1.92l.1-.19a5,5,0,0,1,1.21-1.6A4.32,4.32,0,0,1,105,13.12a5,5,0,0,1,1.81.54,4.68,4.68,0,0,1,2.31,2.27,4.31,4.31,0,0,1,.16,3l-2.29-.5a2.35,2.35,0,0,0,0-1.55,2.26,2.26,0,0,0-1.21-1.27,2.53,2.53,0,0,0-.92-.25,2.07,2.07,0,0,0-.92.12,2.43,2.43,0,0,0-.84.5,2.86,2.86,0,0,0-.66.88l0,.1a2.92,2.92,0,0,0-.31,1,2.33,2.33,0,0,0,.12.93,2.19,2.19,0,0,0,.47.77,2.93,2.93,0,0,0,.77.56,2.28,2.28,0,0,0,1.68.25,2.46,2.46,0,0,0,1.29-.95Z"/>
<path d="M123.61,29.62l3.75,4-4.74,4.42-1.5-1.6,1-1-.22-.24a2.32,2.32,0,0,1-1.45.2,3,3,0,0,1-1.63-1A4,4,0,0,1,118,33a3.67,3.67,0,0,1-.2-1.65,4.78,4.78,0,0,1,.57-1.75,6.93,6.93,0,0,1,1.41-1.77l2.2-2.05a6.29,6.29,0,0,1,1.86-1.24,4.64,4.64,0,0,1,1.85-.38,4,4,0,0,1,1.76.42A5.31,5.31,0,0,1,129,25.74a5,5,0,0,1,1.08,1.68,4.19,4.19,0,0,1-.19,3.42,5,5,0,0,1-1.12,1.47l-.16.15L127,30.69l.16-.15a2.35,2.35,0,0,0,.87-1.62,2.26,2.26,0,0,0-.71-1.63,2.22,2.22,0,0,0-1.65-.77,3.39,3.39,0,0,0-2.17,1.12l-2,1.85q-2.17,2-.52,3.79a2.16,2.16,0,0,0,1.54.81,2.14,2.14,0,0,0,1.51-.65l-2.1-2.25Z"/>
<path d="M128,43.74a2.32,2.32,0,0,1-1.57-.2,3.14,3.14,0,0,1-1.14-1.1,3.89,3.89,0,0,1-.58-1.46,3.64,3.64,0,0,1,.08-1.57,4.34,4.34,0,0,1,.76-1.52A5.33,5.33,0,0,1,127,36.55l.25-.16a5.71,5.71,0,0,1,1.79-.79,4.67,4.67,0,0,1,1.69-.09,3.63,3.63,0,0,1,2.54,1.63,3.28,3.28,0,0,1,.57,1.5,2.36,2.36,0,0,1-.35,1.35l.18.27.92-.59,1.25,1.93L130.54,45c-.3.2-.37.44-.19.71l.19.3-1.84,1.19-.86-1.32a1.47,1.47,0,0,1-.24-1.05,1.24,1.24,0,0,1,.58-.85Zm-.59-2.06a2.05,2.05,0,0,0,1.44,1,2.6,2.6,0,0,0,1.86-.48l.18-.12a2.57,2.57,0,0,0,1.2-1.49,2.27,2.27,0,0,0-1.75-2.71,2.56,2.56,0,0,0-1.85.48l-.19.12a2.67,2.67,0,0,0-1.2,1.5A2.09,2.09,0,0,0,127.41,41.68Z"/>
<path d="M137.53,44.68,139,48.22l-1.21.51.12.31a2.19,2.19,0,0,1,1.41.35,2.57,2.57,0,0,1,.95,1.2,2.86,2.86,0,0,1,.05,2.34,3.62,3.62,0,0,1-2.07,1.76l-.37.15-1.12-2.11.24-.1a1.73,1.73,0,0,0,1-.81,1.42,1.42,0,0,0,0-1.24,1.46,1.46,0,0,0-1-.91,2.25,2.25,0,0,0-1.57.18L132.7,51l.81,1.92-2,.85L129.07,48l2-.84.72,1.72L136.14,47l-.64-1.52Z"/>
<path d="M135.93,64.55l-.07-.32a3,3,0,0,1-.66-.22,2,2,0,0,1-.61-.42,3.18,3.18,0,0,1-.52-.72,4.05,4.05,0,0,1-.36-1.07,3.9,3.9,0,0,1-.05-1.59,3.63,3.63,0,0,1,.61-1.43,4.12,4.12,0,0,1,1.24-1.13,5.83,5.83,0,0,1,1.86-.73l.32-.07a5.91,5.91,0,0,1,2-.11,4.38,4.38,0,0,1,1.62.55,3.83,3.83,0,0,1,1.16,1.07,4.07,4.07,0,0,1,.64,1.46,3.24,3.24,0,0,1,0,1.79,2.88,2.88,0,0,1-.92,1.23l.07.33,4.93-1.1.5,2.26-12.51,2.76-.5-2.25Zm.08-2.49a2.38,2.38,0,0,0,1.05,1.56,2.47,2.47,0,0,0,1.91.26l.21,0a2.46,2.46,0,0,0,1.62-1.05,2.3,2.3,0,0,0,.29-1.85,2.39,2.39,0,0,0-1-1.56,2.43,2.43,0,0,0-1.92-.26l-.22.05a2.43,2.43,0,0,0-1.63,1A2.38,2.38,0,0,0,136,62.06Z"/>
<path d="M139.2,70.8a1.78,1.78,0,0,0-.73.22,1.94,1.94,0,0,0-.57.5,2.27,2.27,0,0,0-.36.71,2.62,2.62,0,0,0-.1.84,2.29,2.29,0,0,0,.36,1.3,1.76,1.76,0,0,0,.74.63l-1,2a3.74,3.74,0,0,1-.74-.42,3.18,3.18,0,0,1-.72-.74,4.11,4.11,0,0,1-.56-1.11,5.39,5.39,0,0,1-.26-1.55,5,5,0,0,1,.25-1.88,4.08,4.08,0,0,1,2.37-2.51,5.71,5.71,0,0,1,2-.42H140a4.84,4.84,0,0,1,1.92.28,4.37,4.37,0,0,1,1.5.91,4.62,4.62,0,0,1,1,1.42,4.78,4.78,0,0,1,.41,1.77,4.59,4.59,0,0,1-.33,2,4.25,4.25,0,0,1-1,1.43,4,4,0,0,1-1.35.86,4.69,4.69,0,0,1-1.47.32l-1.22,0Zm3.54,2a2.17,2.17,0,0,0-.5-1.41,2.08,2.08,0,0,0-1.06-.67l.17,4.28a1.64,1.64,0,0,0,1-.73A2.34,2.34,0,0,0,142.74,72.84Z"/>
<path d="M135.25,81.86l.31-2.28,9,1.22-.31,2.29-1.34-.18,0,.32a2.39,2.39,0,0,1,1,1.16,3,3,0,0,1,.2,1.67,3.65,3.65,0,0,1-.37,1.2,2.86,2.86,0,0,1-.78.92,3.14,3.14,0,0,1-1.2.53,4.64,4.64,0,0,1-1.63,0l-5.7-.77.31-2.29,5.12.7a2.3,2.3,0,0,0,1.58-.26,1.66,1.66,0,0,0,.73-1.26,1.79,1.79,0,0,0-.47-1.6,3,3,0,0,0-1.76-.75Z"/>
<path d="M135.29,110a1.74,1.74,0,0,0,1.45.11,2.33,2.33,0,0,0,1.3-1.21,2.55,2.55,0,0,0,.35-1.45,1.19,1.19,0,0,0-.65-1,1.42,1.42,0,0,0-.58-.17,1.2,1.2,0,0,0-.63.17,3.4,3.4,0,0,0-.73.57,10.34,10.34,0,0,0-.9,1,6.88,6.88,0,0,1-2.54,2.14,3.09,3.09,0,0,1-2.74-.27l-.19-.1a4.08,4.08,0,0,1-1.28-1,3.33,3.33,0,0,1-.65-1.4,4,4,0,0,1,0-1.66,6.38,6.38,0,0,1,.68-1.84,6.25,6.25,0,0,1,1.36-1.79,4.41,4.41,0,0,1,1.63-1,4.18,4.18,0,0,1,1.76-.16,5.15,5.15,0,0,1,1.8.59l.48.26L134.06,104l-.39-.21a2.55,2.55,0,0,0-1.93-.28,2.77,2.77,0,0,0-1.59,1.51,2.38,2.38,0,0,0-.35,1.66,1.48,1.48,0,0,0,.75,1,1.7,1.7,0,0,0,.58.18,1.19,1.19,0,0,0,.63-.1,2.76,2.76,0,0,0,.72-.46,6.57,6.57,0,0,0,.84-.92,11.81,11.81,0,0,1,1.22-1.36,5,5,0,0,1,1.28-.91,3,3,0,0,1,1.41-.29,3.51,3.51,0,0,1,1.57.47l.1,0a3.33,3.33,0,0,1,1.13,1,3.54,3.54,0,0,1,.6,1.34,4,4,0,0,1,0,1.59,5.71,5.71,0,0,1-.61,1.73,5.88,5.88,0,0,1-1.24,1.63,4.42,4.42,0,0,1-1.46.89,3.7,3.7,0,0,1-1.54.19,3.8,3.8,0,0,1-1.46-.44l-.58-.31,1.14-2.13Z"/>
<path d="M128.57,119.88l-1.43,1.81-8.88-7a1.37,1.37,0,0,1-.25-2l3.35-4.23,1.72,1.36L120.6,113a.47.47,0,0,0,.12.73l1.76,1.38.2-.25a2.49,2.49,0,0,1,.38-3,3.46,3.46,0,0,1,1-.85,2.71,2.71,0,0,1,1.17-.39,3.25,3.25,0,0,1,1.32.17,4.66,4.66,0,0,1,1.43.81l4.45,3.52L131,116.87l-4.08-3.22a2.22,2.22,0,0,0-1.47-.58,1.66,1.66,0,0,0-1.27.74,1.78,1.78,0,0,0-.43,1.62,3,3,0,0,0,1.13,1.5Z"/>
<path d="M114.5,123l.24-.22a3.89,3.89,0,0,1-.13-.68,2.18,2.18,0,0,1,.08-.75,2.79,2.79,0,0,1,.37-.79,4.37,4.37,0,0,1,.76-.84,3.88,3.88,0,0,1,1.37-.82,3.63,3.63,0,0,1,1.54-.17,4.33,4.33,0,0,1,1.59.53,6,6,0,0,1,1.54,1.28l.22.25a5.54,5.54,0,0,1,1.06,1.68,4.18,4.18,0,0,1,.31,1.67,3.75,3.75,0,0,1-.37,1.54,4,4,0,0,1-1,1.27,3.17,3.17,0,0,1-1.58.85,2.89,2.89,0,0,1-1.52-.2l-.25.21,3.36,3.78-1.73,1.53-8.5-9.58,1.72-1.53Zm2.21-1.14a2.35,2.35,0,0,0-.85,1.67,2.47,2.47,0,0,0,.7,1.79l.15.17a2.46,2.46,0,0,0,1.69.9,2.59,2.59,0,0,0,2.63-2.31,2.45,2.45,0,0,0-.71-1.8l-.15-.17a2.44,2.44,0,0,0-1.7-.91A2.37,2.37,0,0,0,116.71,121.84Z"/>
<path d="M108.43,125.79l2-1.21,4.74,7.75-2,1.2-.71-1.15-.28.17a2.4,2.4,0,0,1-.24,1.54,3.08,3.08,0,0,1-1.17,1.21,3.73,3.73,0,0,1-1.16.47,2.75,2.75,0,0,1-1.21,0,2.94,2.94,0,0,1-1.17-.59,5,5,0,0,1-1-1.25l-3-4.9,2-1.2,2.69,4.4a2.36,2.36,0,0,0,1.2,1.06,1.66,1.66,0,0,0,1.44-.23,1.75,1.75,0,0,0,.94-1.38,3,3,0,0,0-.53-1.83Z"/>
<path d="M100.71,134.23a1.77,1.77,0,0,0-.45-.62,1.79,1.79,0,0,0-.66-.37,2.23,2.23,0,0,0-.78-.11,2.43,2.43,0,0,0-.83.18,2.35,2.35,0,0,0-1.12.76,1.75,1.75,0,0,0-.35.91l-2.24-.31a4.23,4.23,0,0,1,.16-.84,3.25,3.25,0,0,1,.46-.91,4.54,4.54,0,0,1,.87-.89,5.49,5.49,0,0,1,1.39-.76A5,5,0,0,1,99,130.9a4.08,4.08,0,0,1,1.7.36,4.3,4.3,0,0,1,1.44,1.07,5.65,5.65,0,0,1,1,1.77l0,.1a5,5,0,0,1,.36,1.91,4.28,4.28,0,0,1-.38,1.72,4.59,4.59,0,0,1-1,1.4,4.8,4.8,0,0,1-1.54,1,4.5,4.5,0,0,1-2,.34,4.36,4.36,0,0,1-1.68-.46,4.12,4.12,0,0,1-1.25-1,4.5,4.5,0,0,1-.77-1.28l-.45-1.14Zm-.78,4a2.21,2.21,0,0,0,1.17-.94,2.06,2.06,0,0,0,.29-1.22l-4,1.55a1.63,1.63,0,0,0,1,.74A2.4,2.4,0,0,0,99.93,138.25Z"/>
<path d="M86.94,143.73l-2.26.44-2.18-11.1a1.42,1.42,0,0,1,.19-1.08,1.36,1.36,0,0,1,.92-.59l5.3-1,.42,2.16-3.93.77c-.32.06-.45.27-.38.63l.43,2.19.32-.06A2.51,2.51,0,0,1,88,134a3.68,3.68,0,0,1,1.28,0,2.7,2.7,0,0,1,1.14.46,3.21,3.21,0,0,1,.89,1,4.71,4.71,0,0,1,.56,1.54L93,142.55l-2.27.44-1-5.1a2.26,2.26,0,0,0-.74-1.4,1.7,1.7,0,0,0-1.45-.26,1.75,1.75,0,0,0-1.37,1,3,3,0,0,0-.12,1.88Z"/>
<path d="M63.47,140.76l-10.59-2.88.54-2L64,138.75Z"/>
</svg>