<svg class="zig-zag" id="zig-zag" width="397px" height="16px" viewBox="0 0 397 16" version="1.1" xmlns="http://www.w3.org/2000/svg" xmlns:xlink="http://www.w3.org/1999/xlink">
    <!-- Generator: Sketch 49.3 (51167) - http://www.bohemiancoding.com/sketch -->
    <desc>Created with Sketch.</desc>
    <defs></defs>
    <g id="Page-1" stroke="none" stroke-width="1" fill="none" fill-rule="evenodd" stroke-linejoin="round">
        <g id="FriendlyCacti_Zig-Zag" transform="translate(1.000000, 2.000000)" stroke="#fff" stroke-width="5">
            <polyline id="Shape" points="0.7 0.5 12.6 11.5 24.51 0.5 36.42 11.5 48.33 0.5 60.23 11.5 72.14 0.5 84.05 11.5 95.95 0.5 107.86 11.5 119.77 0.5 131.68 11.5 143.59 0.5 155.5 11.5 167.41 0.5 179.31 11.5 191.22 0.5 203.13 11.5 215.04 0.5 226.95 11.5 238.86 0.5 250.77 11.5 262.67 0.5 274.58 11.5 286.49 0.5 298.4 11.5 310.31 0.5 322.22 11.5 334.13 0.5 346.04 11.5 357.95 0.5 369.87 11.5 381.78 0.5 393.7 11.5"></polyline>
        </g>
    </g>
</svg>