<svg id="Layer_1" data-name="Layer 1" xmlns="http://www.w3.org/2000/svg" viewBox="0 0 1000 1000"><defs><style>.cls-1{fill:#7efd03;stroke:#000;stroke-miterlimit:10;stroke-width:5px;}</style></defs><title>FriendlyCacti_</title><line class="cls-1" x1="500" y1="410.88" x2="500" y2="393.54"/><line class="cls-1" x1="605.33" y1="516.22" x2="622.68" y2="516.22"/><line class="cls-1" x1="377.32" y1="516.22" x2="394.67" y2="516.22"/><line class="cls-1" x1="574.48" y1="590.7" x2="586.74" y2="602.96"/><line class="cls-1" x1="413.26" y1="429.47" x2="425.52" y2="441.73"/><line class="cls-1" x1="425.52" y1="590.7" x2="413.26" y2="602.96"/><line class="cls-1" x1="586.74" y1="429.47" x2="574.48" y2="441.73"/><line class="cls-1" x1="403.1" y1="557.52" x2="387.15" y2="564.32"/><line class="cls-1" x1="612.85" y1="468.11" x2="596.9" y2="474.91"/><line class="cls-1" x1="402.57" y1="476.19" x2="386.53" y2="469.6"/><line class="cls-1" x1="613.47" y1="562.83" x2="597.43" y2="556.24"/><line class="cls-1" x1="457.7" y1="419.75" x2="450.73" y2="403.87"/><line class="cls-1" x1="539.83" y1="418.7" x2="546.39" y2="402.65"/><path class="cls-1" d="M446.21,606.46A105.28,105.28,0,0,1,394.7,513c1.55-57.3,49.22-103.08,106.54-102.42a105.35,105.35,0,0,1,52.55,195.91Z"/><line class="cls-1" x1="554.36" y1="449.88" x2="533.23" y2="471.01"/><line class="cls-1" x1="554.36" y1="561.42" x2="533.23" y2="582.55"/><line class="cls-1" x1="445.64" y1="449.88" x2="466.77" y2="471.01"/><line class="cls-1" x1="579.31" y1="505.65" x2="558.18" y2="526.78"/><line class="cls-1" x1="420.69" y1="505.65" x2="441.82" y2="526.78"/><line class="cls-1" x1="445.64" y1="561.42" x2="466.77" y2="582.55"/><path class="cls-1" d="M477.44,535.87a23.86,23.86,0,0,0,45.12,0"/><path class="cls-1" d="M470,521a11.41,11.41,0,0,1,22.82,0"/><path class="cls-1" d="M507.15,521A11.41,11.41,0,0,1,530,521"/><line class="cls-1" x1="518.56" y1="509.6" x2="518.56" y2="502.67"/><line class="cls-1" x1="528.44" y1="515.31" x2="534" y2="509.74"/><line class="cls-1" x1="508.94" y1="514.88" x2="503.38" y2="509.31"/><line class="cls-1" x1="481.31" y1="509.6" x2="481.31" y2="502.67"/><line class="cls-1" x1="491.18" y1="515.31" x2="496.75" y2="509.74"/><line class="cls-1" x1="471.69" y1="514.88" x2="466.13" y2="509.31"/><line class="cls-1" x1="500" y1="575.42" x2="500" y2="593.91"/><line class="cls-1" x1="500" y1="436.27" x2="500" y2="466.16"/></svg>