<svg id="Layer_1" data-name="Layer 1" xmlns="http://www.w3.org/2000/svg" viewBox="0 0 1000 1000"><defs><style>.cls-1,.cls-2{fill:#7efd03;stroke:#000;stroke-width:5px;}.cls-1{stroke-miterlimit:10;}.cls-2{stroke-linejoin:round;}</style></defs><title>FriendlyCacti_</title><path class="cls-1" d="M456.27,628a29,29,0,0,0-7.34,57.13l85.24,22.32a29,29,0,1,0,14.72-56.17L463.65,629A28.92,28.92,0,0,0,456.27,628Z"/><path class="cls-2" d="M427.86,710.87c.09-.4.18-.79.29-1.19A29,29,0,0,1,463.59,689l83.7,21.92Z"/><path class="cls-1" d="M456.27,567.86A29,29,0,0,0,448.93,625l85.24,22.33a29,29,0,0,0,14.72-56.18l-85.24-22.32A28.93,28.93,0,0,0,456.27,567.86Z"/><path class="cls-1" d="M456.27,507.73a29,29,0,0,0-7.34,57.13l85.24,22.32A29,29,0,1,0,548.89,531l-85.24-22.33A29.37,29.37,0,0,0,456.27,507.73Z"/><path class="cls-1" d="M456.27,447.59a29,29,0,0,0-7.34,57.13l85.24,22.33a29,29,0,0,0,14.72-56.18l-85.24-22.32A28.93,28.93,0,0,0,456.27,447.59Z"/><path class="cls-1" d="M456.27,387.46a29,29,0,0,0-7.34,57.13l85.24,22.32a29,29,0,1,0,14.72-56.17l-85.24-22.33A29.37,29.37,0,0,0,456.27,387.46Z"/><path class="cls-1" d="M456.27,327.32a29,29,0,0,0-7.34,57.13l85.24,22.33a29,29,0,0,0,14.72-56.18l-85.24-22.32A28.93,28.93,0,0,0,456.27,327.32Z"/><line class="cls-1" x1="498.91" y1="337.51" x2="498.91" y2="289.13"/><line class="cls-1" x1="498.91" y1="337.51" x2="517.2" y2="292.72"/><line class="cls-1" x1="498.91" y1="337.51" x2="532.78" y2="302.96"/><line class="cls-1" x1="534.17" y1="406.78" x2="584.62" y2="407.73"/><line class="cls-1" x1="534.17" y1="406.78" x2="582.76" y2="420.38"/><line class="cls-1" x1="463.65" y1="388.41" x2="410.63" y2="387.46"/><line class="cls-1" x1="463.65" y1="388.41" x2="412.06" y2="376.18"/><path class="cls-1" d="M475.28,419.13a9.23,9.23,0,0,1,17.88,4.63"/><path class="cls-1" d="M504.36,426.66a9.23,9.23,0,1,1,17.88,4.63"/><path class="cls-1" d="M505.12,434.73a9.23,9.23,0,0,1-17.88-4.62"/><line class="cls-1" x1="548.89" y1="470.87" x2="596.62" y2="481.45"/><line class="cls-1" x1="548.89" y1="470.87" x2="596.53" y2="459.9"/><line class="cls-1" x1="451.11" y1="445.49" x2="403.38" y2="456.06"/><line class="cls-1" x1="451.11" y1="445.49" x2="403.47" y2="434.52"/><line class="cls-1" x1="548.89" y1="589.53" x2="596.62" y2="600.11"/><line class="cls-1" x1="548.89" y1="589.53" x2="596.53" y2="578.56"/><line class="cls-1" x1="451.11" y1="566.88" x2="403.38" y2="577.45"/><line class="cls-1" x1="451.11" y1="566.88" x2="403.47" y2="555.91"/><line class="cls-1" x1="541.85" y1="528" x2="589.98" y2="530.75"/><line class="cls-1" x1="456.27" y1="507.73" x2="407.99" y2="500.2"/><line class="cls-1" x1="541.85" y1="648.02" x2="589.98" y2="650.77"/><line class="cls-1" x1="456.27" y1="627.75" x2="407.99" y2="620.22"/></svg>