<svg id="Layer_1" data-name="Layer 1" xmlns="http://www.w3.org/2000/svg" viewBox="0 0 1000 1000"><defs><style>.cls-1{fill:#7efd03;stroke:#000;stroke-miterlimit:10;stroke-width:5px;}</style></defs><title>FriendlyCacti_</title><path class="cls-1" d="M567.79,792.64V275.14a67.79,67.79,0,0,0-135.58,0v517.5Z"/><path class="cls-1" d="M538.28,354V331c0-10.88.08-21.76.5-32.63.54-14.3-2-52.57-38.68-90.87v-.1s0,0-.05,0l-.05,0v.1c-36.7,38.3-39.22,76.57-38.68,90.87.42,10.87.5,44.79.5,55.67"/><line class="cls-1" x1="538.29" y1="323.56" x2="550.58" y2="311.28"/><line class="cls-1" x1="538.29" y1="323.56" x2="526.01" y2="311.28"/><line class="cls-1" x1="538.29" y1="538.98" x2="550.58" y2="526.7"/><line class="cls-1" x1="538.29" y1="538.98" x2="526.01" y2="526.7"/><line class="cls-1" x1="538.29" y1="610.79" x2="550.58" y2="598.51"/><line class="cls-1" x1="538.29" y1="610.79" x2="526.01" y2="598.51"/><line class="cls-1" x1="538.29" y1="682.59" x2="550.58" y2="670.31"/><line class="cls-1" x1="538.29" y1="682.59" x2="526.01" y2="670.31"/><line class="cls-1" x1="538.29" y1="754.4" x2="550.58" y2="742.12"/><line class="cls-1" x1="538.29" y1="754.4" x2="526.01" y2="742.12"/><line class="cls-1" x1="500" y1="272.99" x2="512.28" y2="260.7"/><line class="cls-1" x1="500" y1="272.99" x2="487.72" y2="260.7"/><polyline class="cls-1" points="487.72 341.71 500 354 512.28 341.71"/><line class="cls-1" x1="500" y1="516.01" x2="512.28" y2="503.73"/><line class="cls-1" x1="500" y1="516.01" x2="487.72" y2="503.73"/><line class="cls-1" x1="500" y1="597.02" x2="512.28" y2="584.74"/><line class="cls-1" x1="500" y1="597.02" x2="487.72" y2="584.74"/><line class="cls-1" x1="500" y1="678.03" x2="512.28" y2="665.75"/><line class="cls-1" x1="500" y1="678.03" x2="487.72" y2="665.75"/><line class="cls-1" x1="500" y1="759.04" x2="512.28" y2="746.76"/><line class="cls-1" x1="500" y1="759.04" x2="487.72" y2="746.76"/><line class="cls-1" x1="567.79" y1="272.99" x2="580.07" y2="260.7"/><line class="cls-1" x1="567.79" y1="354" x2="580.07" y2="341.71"/><line class="cls-1" x1="567.79" y1="435" x2="580.07" y2="422.72"/><line class="cls-1" x1="567.79" y1="516.01" x2="580.07" y2="503.73"/><line class="cls-1" x1="567.79" y1="597.02" x2="580.07" y2="584.74"/><line class="cls-1" x1="567.79" y1="678.03" x2="580.07" y2="665.75"/><line class="cls-1" x1="567.79" y1="759.04" x2="580.07" y2="746.76"/><line class="cls-1" x1="432.21" y1="272.99" x2="419.93" y2="260.7"/><line class="cls-1" x1="432.21" y1="354" x2="419.93" y2="341.71"/><line class="cls-1" x1="432.21" y1="435" x2="419.93" y2="422.72"/><line class="cls-1" x1="432.21" y1="516.01" x2="419.93" y2="503.73"/><line class="cls-1" x1="432.21" y1="597.02" x2="419.93" y2="584.74"/><line class="cls-1" x1="432.21" y1="678.03" x2="419.93" y2="665.75"/><line class="cls-1" x1="432.21" y1="759.04" x2="419.93" y2="746.76"/><line class="cls-1" x1="461.71" y1="323.56" x2="473.99" y2="311.28"/><line class="cls-1" x1="461.71" y1="323.56" x2="449.42" y2="311.28"/><line class="cls-1" x1="461.71" y1="538.98" x2="473.99" y2="526.7"/><line class="cls-1" x1="461.71" y1="538.98" x2="449.42" y2="526.7"/><line class="cls-1" x1="461.71" y1="610.79" x2="473.99" y2="598.51"/><line class="cls-1" x1="461.71" y1="610.79" x2="449.42" y2="598.51"/><line class="cls-1" x1="461.71" y1="682.59" x2="473.99" y2="670.31"/><line class="cls-1" x1="461.71" y1="682.59" x2="449.42" y2="670.31"/><line class="cls-1" x1="461.71" y1="754.4" x2="473.99" y2="742.12"/><line class="cls-1" x1="461.71" y1="754.4" x2="449.42" y2="742.12"/><line class="cls-1" x1="500" y1="207.36" x2="500" y2="354"/><line class="cls-1" x1="538.84" y1="466.26" x2="538.84" y2="792.64"/><line class="cls-1" x1="500" y1="466.26" x2="500" y2="792.64"/><line class="cls-1" x1="461.27" y1="466.26" x2="461.27" y2="792.64"/><path class="cls-1" d="M474.91,420.48a26.53,26.53,0,0,0,50.18,0Z"/><path class="cls-1" d="M466.66,400.85a12.7,12.7,0,1,1,25.39,0"/><path class="cls-1" d="M508,400.85a12.69,12.69,0,1,1,25.38,0"/></svg>