<svg id="Layer_1" data-name="Layer 1" xmlns="http://www.w3.org/2000/svg" viewBox="0 0 396.39 16"><defs><style>.cls-1{fill:none;stroke:#000;stroke-linejoin:round;stroke-width:5px;}</style></defs><title>FriendlyCacti_</title><polyline class="cls-1" points="1.7 2.5 13.6 13.5 25.51 2.5 37.42 13.5 49.33 2.5 61.23 13.5 73.14 2.5 85.05 13.5 96.95 2.5 108.86 13.5 120.77 2.5 132.68 13.5 144.59 2.5 156.5 13.5 168.41 2.5 180.31 13.5 192.22 2.5 204.13 13.5 216.04 2.5 227.95 13.5 239.86 2.5 251.77 13.5 263.67 2.5 275.58 13.5 287.49 2.5 299.4 13.5 311.31 2.5 323.22 13.5 335.13 2.5 347.04 13.5 358.95 2.5 370.87 13.5 382.78 2.5 394.7 13.5"/></svg>