<svg id="Layer_1" data-name="Layer 1" xmlns="http://www.w3.org/2000/svg" viewBox="0 0 1000 1000"><defs><style>.cls-1{fill:#7efd03;stroke:#000;stroke-miterlimit:10;}.cls-1,.cls-2{stroke-width:5px;}.cls-2{fill:none;stroke:#1d1d1b;stroke-linejoin:round;}</style></defs><title>FriendlyCacti_</title><path class="cls-1" d="M573,847.73V536.59a113,113,0,0,0,113-113V400.22a37.19,37.19,0,1,0-74.38,0,37.2,37.2,0,0,1-37.2,37.19V239.05a74.38,74.38,0,0,0-148.76,0v99.18A37.2,37.2,0,0,1,388.42,301,37.19,37.19,0,0,0,314,301V324.4a113,113,0,0,0,113,113V847.73Z"/><line class="cls-1" x1="500" y1="164.67" x2="500" y2="152.27"/><line class="cls-1" x1="462.81" y1="174.63" x2="456.61" y2="163.9"/><line class="cls-1" x1="435.58" y1="201.86" x2="424.85" y2="195.66"/><line class="cls-1" x1="425.62" y1="239.05" x2="413.22" y2="239.05"/><line class="cls-1" x1="425.62" y1="288.64" x2="413.22" y2="288.64"/><line class="cls-1" x1="425.62" y1="487" x2="413.22" y2="487"/><line class="cls-1" x1="425.62" y1="536.59" x2="413.22" y2="536.59"/><line class="cls-1" x1="394.18" y1="276.24" x2="383.44" y2="282.44"/><line class="cls-1" x1="351.23" y1="251.45" x2="351.23" y2="263.85"/><line class="cls-1" x1="308.29" y1="276.24" x2="319.02" y2="282.44"/><line class="cls-1" x1="691.71" y1="375.42" x2="680.98" y2="381.62"/><line class="cls-1" x1="648.77" y1="350.63" x2="648.77" y2="363.02"/><line class="cls-1" x1="605.82" y1="375.42" x2="616.56" y2="381.62"/><line class="cls-1" x1="425.62" y1="586.17" x2="413.22" y2="586.17"/><line class="cls-1" x1="425.62" y1="635.76" x2="413.22" y2="635.76"/><line class="cls-1" x1="586.78" y1="288.64" x2="574.38" y2="288.64"/><line class="cls-1" x1="586.78" y1="338.23" x2="574.38" y2="338.23"/><line class="cls-1" x1="586.78" y1="387.82" x2="574.38" y2="387.82"/><line class="cls-1" x1="586.78" y1="586.17" x2="574.38" y2="586.17"/><line class="cls-1" x1="586.78" y1="635.85" x2="574.38" y2="635.85"/><line class="cls-1" x1="586.78" y1="685.52" x2="574.38" y2="685.52"/><line class="cls-1" x1="586.78" y1="735.19" x2="574.38" y2="735.19"/><line class="cls-1" x1="586.78" y1="784.86" x2="574.38" y2="784.86"/><line class="cls-1" x1="586.78" y1="834.53" x2="574.38" y2="834.53"/><line class="cls-1" x1="425.62" y1="685.52" x2="413.22" y2="685.52"/><line class="cls-1" x1="425.62" y1="735.19" x2="413.22" y2="735.19"/><line class="cls-1" x1="425.62" y1="784.86" x2="413.22" y2="784.86"/><line class="cls-1" x1="425.62" y1="834.53" x2="413.22" y2="834.53"/><line class="cls-1" x1="586.78" y1="239.05" x2="574.38" y2="239.05"/><line class="cls-1" x1="575.15" y1="195.66" x2="564.42" y2="201.86"/><line class="cls-1" x1="543.39" y1="163.9" x2="537.19" y2="174.63"/><line class="cls-1" x1="314.04" y1="324.4" x2="301.64" y2="324.4"/><line class="cls-1" x1="320.86" y1="363.05" x2="309.21" y2="367.29"/><line class="cls-1" x1="340.48" y1="397.04" x2="330.98" y2="405.01"/><line class="cls-1" x1="370.54" y1="422.27" x2="364.34" y2="433"/><line class="cls-1" x1="407.42" y1="435.69" x2="405.27" y2="447.9"/><line class="cls-1" x1="685.96" y1="423.58" x2="698.36" y2="423.58"/><line class="cls-1" x1="679.14" y1="462.23" x2="690.79" y2="466.47"/><line class="cls-1" x1="659.52" y1="496.22" x2="669.02" y2="504.19"/><line class="cls-1" x1="629.46" y1="521.45" x2="635.66" y2="532.18"/><line class="cls-1" x1="592.58" y1="534.87" x2="594.73" y2="547.08"/><line class="cls-2" x1="495.62" y1="815.98" x2="504.38" y2="807.21"/><line class="cls-2" x1="495.62" y1="772.94" x2="504.38" y2="764.17"/><line class="cls-2" x1="495.62" y1="729.9" x2="504.38" y2="721.13"/><line class="cls-2" x1="495.62" y1="686.85" x2="504.38" y2="678.09"/><line class="cls-2" x1="495.62" y1="643.81" x2="504.38" y2="635.05"/><line class="cls-2" x1="495.62" y1="600.77" x2="504.38" y2="592.01"/><line class="cls-2" x1="495.62" y1="557.73" x2="504.38" y2="548.97"/><line class="cls-2" x1="495.62" y1="514.69" x2="504.38" y2="505.92"/><line class="cls-2" x1="495.62" y1="471.65" x2="504.38" y2="462.88"/><line class="cls-2" x1="495.62" y1="428.61" x2="504.38" y2="419.84"/><line class="cls-2" x1="495.62" y1="385.57" x2="504.38" y2="376.8"/><line class="cls-2" x1="495.62" y1="342.53" x2="504.38" y2="333.76"/><line class="cls-2" x1="532.57" y1="815.98" x2="541.34" y2="807.21"/><line class="cls-2" x1="532.57" y1="772.94" x2="541.34" y2="764.17"/><line class="cls-2" x1="532.57" y1="729.9" x2="541.34" y2="721.13"/><line class="cls-2" x1="532.57" y1="686.85" x2="541.34" y2="678.09"/><line class="cls-2" x1="532.57" y1="643.81" x2="541.34" y2="635.05"/><line class="cls-2" x1="532.57" y1="600.77" x2="541.34" y2="592.01"/><line class="cls-2" x1="532.57" y1="557.73" x2="541.34" y2="548.97"/><line class="cls-2" x1="532.57" y1="514.69" x2="541.34" y2="505.92"/><line class="cls-2" x1="570.49" y1="514.69" x2="579.25" y2="505.92"/><line class="cls-2" x1="607.44" y1="514.69" x2="616.21" y2="505.92"/><line class="cls-2" x1="532.57" y1="471.65" x2="541.34" y2="462.88"/><line class="cls-2" x1="532.57" y1="428.61" x2="541.34" y2="419.84"/><line class="cls-2" x1="532.57" y1="385.57" x2="541.34" y2="376.8"/><line class="cls-2" x1="532.57" y1="342.53" x2="541.34" y2="333.76"/><line class="cls-2" x1="457.69" y1="815.98" x2="466.46" y2="807.21"/><line class="cls-2" x1="457.69" y1="772.94" x2="466.46" y2="764.17"/><line class="cls-2" x1="457.69" y1="729.9" x2="466.46" y2="721.13"/><line class="cls-2" x1="457.69" y1="686.85" x2="466.46" y2="678.09"/><line class="cls-2" x1="457.69" y1="643.81" x2="466.46" y2="635.05"/><line class="cls-2" x1="457.69" y1="600.77" x2="466.46" y2="592.01"/><line class="cls-2" x1="457.69" y1="557.73" x2="466.46" y2="548.97"/><line class="cls-2" x1="457.69" y1="514.69" x2="466.46" y2="505.92"/><line class="cls-2" x1="457.69" y1="471.65" x2="466.46" y2="462.88"/><line class="cls-2" x1="570.49" y1="471.65" x2="579.25" y2="462.88"/><line class="cls-2" x1="607.44" y1="471.65" x2="616.21" y2="462.88"/><line class="cls-2" x1="644.4" y1="471.65" x2="653.16" y2="462.88"/><line class="cls-2" x1="644.4" y1="428.5" x2="653.16" y2="419.73"/><line class="cls-2" x1="644.4" y1="389.95" x2="653.16" y2="381.19"/><line class="cls-2" x1="457.69" y1="428.61" x2="466.46" y2="419.84"/><line class="cls-2" x1="457.69" y1="385.57" x2="466.46" y2="376.8"/><line class="cls-2" x1="384.91" y1="360.21" x2="393.68" y2="351.44"/><line class="cls-2" x1="384.91" y1="404.41" x2="393.68" y2="395.64"/><line class="cls-2" x1="421.87" y1="385.57" x2="430.63" y2="376.8"/><line class="cls-2" x1="346.99" y1="382.57" x2="355.75" y2="373.8"/><line class="cls-2" x1="346.99" y1="339.53" x2="355.75" y2="330.76"/><line class="cls-2" x1="346.99" y1="296.49" x2="355.75" y2="287.72"/><line class="cls-2" x1="457.69" y1="342.53" x2="466.46" y2="333.76"/><line class="cls-2" x1="500" y1="206.44" x2="500" y2="194.04"/><line class="cls-2" x1="532.57" y1="219.63" x2="541.34" y2="210.86"/><line class="cls-2" x1="466.46" y1="219.63" x2="457.69" y2="210.86"/><path class="cls-2" d="M474.91,280a26.53,26.53,0,0,0,50.18,0"/><path class="cls-2" d="M466.66,264.39a12.7,12.7,0,0,1,25.39,0"/><path class="cls-2" d="M508,264.39a12.7,12.7,0,0,1,25.39,0"/></svg>