<svg id="Layer_1" data-name="Layer 1" xmlns="http://www.w3.org/2000/svg" viewBox="0 0 1000 1000"><defs><style>.cls-1{fill:#7efd03;}.cls-1,.cls-2,.cls-3{stroke:#000;stroke-miterlimit:10;stroke-width:5px;}.cls-2{fill:#ff0dbd;}.cls-3{fill:#fff;}.cls-4{fill:#1d1d1b;}</style></defs><title>FriendlyCacti_Peyote</title><path class="cls-1" d="M452,592.58a93.94,93.94,0,0,1-46-83.41c1.38-51.12,43.91-92,95.05-91.38A94,94,0,0,1,548,592.58Z"/><path class="cls-1" d="M508.42,469.69c-8.14,9.4-20-.89-28.17,8.52s3.75,19.7-4.4,29.11-20-.88-28.18,8.53,3.75,19.7-4.4,29.11-20-.88-28.18,8.53"/><path class="cls-1" d="M507.27,463.26c8,9.55-4.11,19.62,3.85,29.18s20-.52,28,9S535,521.11,543,530.67s20-.51,28,9.05-4.11,19.63,3.87,29.19"/><path class="cls-2" d="M566,474.11c.05-2.86-3.1-13.19-47.67-7.88,35.27-27.76,30.2-37.29,28.14-39.28s-11.52-7.13-39.28,28.14c5.31-44.57-5-47.72-7.88-47.67s-13.19,3.1-7.87,47.67c-27.77-35.27-37.3-30.2-39.29-28.14s-7.13,11.52,28.15,39.28c-44.58-5.31-47.73,5-47.68,7.88s3.1,13.19,47.68,7.87c-35.28,27.76-30.2,37.29-28.15,39.28s11.52,7.14,39.29-28.14c-5.32,44.58,5,47.72,7.87,47.68s13.19-3.1,7.88-47.68c27.76,35.28,37.29,30.2,39.28,28.14s7.13-11.52-28.14-39.28C562.94,487.3,566.09,477,566,474.11Z"/><circle class="cls-3" cx="499.35" cy="475.36" r="18.85"/><circle class="cls-3" cx="499.35" cy="475.36" r="9.67"/><circle class="cls-4" cx="554.78" cy="553.49" r="2.92"/><circle class="cls-4" cx="529.15" cy="541.49" r="2.92"/><circle class="cls-4" cx="556.3" cy="495.32" r="2.92"/><circle class="cls-4" cx="570.88" cy="517.75" r="2.92"/><circle class="cls-4" cx="577.96" cy="499.48" r="2.92"/><circle class="cls-4" cx="440.17" cy="495.32" r="2.92"/><circle class="cls-4" cx="423.24" cy="515.88" r="2.92"/><circle class="cls-4" cx="461.76" cy="571.59" r="2.92"/><circle class="cls-4" cx="468.07" cy="534.4" r="2.92"/><circle class="cls-4" cx="437.25" cy="561.48" r="2.92"/><path class="cls-1" d="M479.89,562.39a7.65,7.65,0,1,1,15.29,0"/><path class="cls-1" d="M504.77,562.39a7.65,7.65,0,0,1,15.3,0"/><path class="cls-1" d="M483.7,571.05a18.87,18.87,0,0,0,32.56,0"/></svg>