<svg id="Layer_1" data-name="Layer 1" xmlns="http://www.w3.org/2000/svg" viewBox="0 0 1000 1000"><defs><style>.cls-1{fill:#7efd03;}.cls-1,.cls-3{stroke:#000;stroke-miterlimit:10;stroke-width:5px;}.cls-2{fill:#1d1d1b;}.cls-3{fill:none;}</style></defs><title>FriendlyCacti_</title><path class="cls-1" d="M335.42,264c.58-.2,1.16-.39,1.75-.56,45.77-14,90.74,24.25,85.39,71.82l-8.34,74.25-55.17,18.41-50.89-54.74c-32.52-35-19.38-92.32,25.52-108.58C334.26,264.35,334.83,264.15,335.42,264Z"/><circle cx="367.52" cy="356.17" r="2.75"/><circle cx="368.25" cy="379.55" r="2.75"/><circle cx="379.71" cy="398.05" r="2.75"/><circle cx="351.06" cy="397.05" r="2.75"/><circle cx="399.28" cy="354.72" r="2.75"/><circle cx="390.98" cy="378.41" r="2.75"/><circle cx="346.61" cy="345.03" r="2.75"/><circle cx="322.84" cy="353.73" r="2.75"/><circle cx="326.51" cy="374.26" r="2.75"/><circle cx="348.29" cy="368.21" r="2.75"/><circle cx="384.4" cy="336.34" r="2.75"/><circle cx="401.46" cy="321.04" r="2.75"/><circle cx="397.72" cy="301.39" r="2.75"/><circle cx="377.96" cy="308.35" r="2.75"/><circle cx="358.53" cy="280.74" r="2.75"/><circle cx="379.71" cy="285.32" r="2.75"/><circle cx="349.66" cy="305.01" r="2.75"/><circle cx="334.09" cy="288.07" r="2.75"/><circle cx="319.77" cy="303.6" r="2.75"/><circle cx="333.86" cy="326.44" r="2.75"/><circle cx="312.72" cy="331.51" r="2.75"/><circle cx="360.15" cy="323.57" r="2.75"/><path class="cls-1" d="M383.39,413.3c.58-.2,1.16-.38,1.75-.56,45.77-14,90.74,24.26,85.39,71.82l-8.34,74.25L407,577.23l-50.89-54.75c-32.52-35-19.38-92.32,25.52-108.58Q382.51,413.59,383.39,413.3Z"/><circle cx="416.72" cy="501.91" r="2.75"/><circle cx="416.03" cy="525.29" r="2.75"/><circle cx="397.79" cy="541.7" r="2.75"/><circle cx="448.51" cy="502.4" r="2.75"/><circle cx="438.78" cy="525.54" r="2.75"/><circle cx="396.54" cy="489.51" r="2.75"/><circle cx="369.28" cy="496.55" r="2.75"/><circle cx="374.68" cy="517.45" r="2.75"/><circle cx="396.79" cy="512.75" r="2.75"/><circle cx="434.78" cy="483.15" r="2.75"/><circle cx="452.75" cy="468.92" r="2.75"/><circle cx="434.78" cy="451.5" r="2.75"/><circle cx="416.72" cy="434.63" r="2.75"/><circle cx="402.03" cy="449.75" r="2.75"/><circle cx="387.53" cy="431.88" r="2.75"/><circle cx="369.28" cy="446.33" r="2.75"/><circle cx="384.95" cy="470.17" r="2.75"/><circle cx="360.53" cy="473.76" r="2.75"/><circle cx="411.36" cy="468.92" r="2.75"/><path class="cls-1" d="M556.19,265.47l-1.43,0c-37.07.94-60.73,40.08-45.14,73.73L534,391.74H579L603,339c15.32-33.68-8.4-72.6-45.39-73.54Z"/><circle cx="551.51" cy="354.03" r="2.75"/><circle cx="531.17" cy="348.18" r="2.75"/><circle cx="563.28" cy="376.67" r="2.75"/><circle cx="544.41" cy="373.26" r="2.75"/><circle cx="538.54" cy="329.27" r="2.75"/><circle cx="570.2" cy="285.57" r="2.75"/><circle cx="523.33" cy="316.84" r="2.75"/><circle cx="563.28" cy="340.09" r="2.75"/><circle cx="583.03" cy="324.32" r="2.75"/><circle cx="588.68" cy="305.11" r="2.75"/><circle cx="568.99" cy="303.13" r="2.75"/><circle cx="587.78" cy="343.42" r="2.75"/><circle cx="571.74" cy="356.78" r="2.75"/><circle cx="548.16" cy="284.49" r="2.75"/><circle cx="545.67" cy="307.11" r="2.75"/><circle cx="527" cy="295.62" r="2.75"/><circle cx="561.28" cy="321.67" r="2.75"/><path class="cls-1" d="M697.92,328l-1-1c-26.8-25.63-71.25-14.81-84.11,20L592.7,401.29l31.77,31.95,54.29-20.16c34.68-12.88,45.56-57.14,20.15-84Q698.42,328.53,697.92,328Z"/><circle cx="628.08" cy="386.6" r="2.75"/><circle cx="618.76" cy="367.6" r="2.75"/><circle cx="619.21" cy="410.52" r="2.75"/><circle cx="609.06" cy="394.25" r="2.75"/><circle cx="637.71" cy="360.35" r="2.75"/><circle cx="691.36" cy="354.47" r="2.75"/><circle cx="636.71" cy="340.74" r="2.75"/><circle cx="646.31" cy="385.96" r="2.75"/><circle cx="671.26" cy="390" r="2.75"/><circle cx="689.29" cy="381.28" r="2.75"/><circle cx="677.53" cy="365.37" r="2.75"/><circle cx="660.3" cy="406.34" r="2.75"/><circle cx="639.62" cy="403.43" r="2.75"/><circle cx="677.36" cy="337.42" r="2.75"/><circle cx="658.92" cy="350.76" r="2.75"/><circle cx="654.9" cy="329.21" r="2.75"/><circle cx="658.62" cy="372.1" r="2.75"/><path class="cls-1" d="M580.2,392.48l-2-.64c-51.89-15.87-102.88,27.51-96.82,81.44l9.46,84.19,62.55,20.88,57.71-62.07c36.86-39.66,22-104.68-28.94-123.12Z"/><circle class="cls-2" cx="539.96" cy="472.51" r="2.75"/><circle class="cls-2" cx="529.43" cy="509.65" r="2.75"/><circle class="cls-2" cx="539.21" cy="531.65" r="2.75"/><circle class="cls-2" cx="562.25" cy="523.2" r="2.75"/><circle class="cls-2" cx="555.34" cy="546.92" r="2.75"/><circle class="cls-2" cx="500.93" cy="502.35" r="2.75"/><circle class="cls-2" cx="512.95" cy="522.8" r="2.75"/><circle class="cls-2" cx="585.37" cy="516.1" r="2.75"/><circle class="cls-2" cx="544.71" cy="452.25" r="2.75"/><circle class="cls-2" cx="549.77" cy="500.36" r="2.75"/><circle class="cls-2" cx="515.7" cy="459.28" r="2.75"/><circle class="cls-2" cx="494.83" cy="456.58" r="2.75"/><circle class="cls-2" cx="504.73" cy="477.87" r="2.75"/><circle class="cls-2" cx="523.7" cy="490.18" r="2.75"/><circle class="cls-2" cx="571.49" cy="496.11" r="2.75"/><circle class="cls-2" cx="595.77" cy="496.55" r="2.75"/><circle class="cls-2" cx="593.87" cy="473.73" r="2.75"/><circle class="cls-2" cx="593.02" cy="449.03" r="2.75"/><circle class="cls-2" cx="614.58" cy="452.5" r="2.75"/><circle class="cls-2" cx="614.58" cy="486.15" r="2.75"/><circle class="cls-2" cx="571.95" cy="449.34" r="2.75"/><circle class="cls-2" cx="574.32" cy="426.45" r="2.75"/><circle class="cls-2" cx="562.25" cy="406.33" r="2.75"/><circle class="cls-2" cx="597.77" cy="425.19" r="2.75"/><circle class="cls-2" cx="532.82" cy="413.56" r="2.75"/><circle class="cls-2" cx="551.51" cy="429.19" r="2.75"/><circle class="cls-2" cx="526.63" cy="436.97" r="2.75"/><circle class="cls-2" cx="506.68" cy="433.97" r="2.75"/><circle class="cls-2" cx="566.99" cy="472.49" r="2.75"/><path class="cls-1" d="M569.9,739.53V623.8a89.82,89.82,0,1,0-179.63,0V739.53Z"/><path d="M446.27,597.9a2.75,2.75,0,1,0-2.74,2.75A2.74,2.74,0,0,0,446.27,597.9Z"/><circle cx="419.75" cy="613.25" r="2.75"/><circle cx="500.07" cy="601.46" r="2.75"/><circle cx="501.7" cy="561.59" r="2.75"/><path d="M442.52,634.72a2.75,2.75,0,1,0-2.75,2.74A2.75,2.75,0,0,0,442.52,634.72Z"/><path d="M411,651.69a2.75,2.75,0,1,0-2.75-2.75A2.75,2.75,0,0,0,411,651.69Z"/><circle cx="442.02" cy="669.61" r="2.75"/><circle cx="413.27" cy="723.91" r="2.75"/><circle cx="467.72" cy="723.91" r="2.75"/><circle cx="442.02" cy="704.5" r="2.75"/><circle cx="411.03" cy="684.18" r="2.75"/><circle cx="469.96" cy="611.01" r="2.75"/><circle cx="424.46" cy="582.57" r="2.75"/><circle cx="447.26" cy="562.35" r="2.75"/><circle cx="548.02" cy="634.72" r="2.75"/><circle cx="523.03" cy="686.43" r="2.75"/><circle cx="497.33" cy="675.61" r="2.75"/><circle cx="523.03" cy="725.7" r="2.75"/><circle cx="499.57" cy="707.99" r="2.75"/><circle cx="472.21" cy="695.87" r="2.75"/><circle cx="523.03" cy="621.92" r="2.75"/><circle cx="543.71" cy="606.62" r="2.75"/><path d="M523,648.44a2.75,2.75,0,1,0,2.75,2.75A2.75,2.75,0,0,0,523,648.44Z"/><circle cx="552.51" cy="671.85" r="2.75"/><circle cx="545.77" cy="705.74" r="2.75"/><circle cx="520.58" cy="582.57" r="2.75"/><circle cx="472.96" cy="578.42" r="2.75"/><circle cx="474.96" cy="555.28" r="2.75"/><path class="cls-3" d="M456.49,638.68a9,9,0,0,1,18,0"/><path class="cls-3" d="M485.72,638.68a9,9,0,0,1,18,0"/><path class="cls-3" d="M461,648.85a22.15,22.15,0,0,0,38.24,0"/></svg>