<svg id="Layer_1" data-name="Layer 1" xmlns="http://www.w3.org/2000/svg" viewBox="0 0 1000 1000"><defs><style>.cls-1{fill:#7efd03;stroke:#000;}.cls-1,.cls-2{stroke-miterlimit:10;stroke-width:5px;}.cls-2{fill:#ff0dbd;stroke:#1d1d1b;}</style></defs><title>FriendlyCacti_</title><path class="cls-1" d="M569.84,793V342.56a69.84,69.84,0,0,0-139.68,0V793Z"/><line class="cls-1" x1="500" y1="303.95" x2="500" y2="334.76"/><line class="cls-1" x1="529.4" y1="313.86" x2="522.8" y2="335.06"/><line class="cls-1" x1="529.4" y1="361.7" x2="522.8" y2="382.9"/><line class="cls-1" x1="529.4" y1="506.13" x2="522.8" y2="527.33"/><line class="cls-1" x1="529.4" y1="554.28" x2="522.8" y2="575.47"/><line class="cls-1" x1="529.4" y1="602.42" x2="522.8" y2="623.62"/><line class="cls-1" x1="529.4" y1="650.56" x2="522.8" y2="671.76"/><line class="cls-1" x1="529.4" y1="698.71" x2="522.8" y2="719.9"/><line class="cls-1" x1="529.4" y1="746.85" x2="522.8" y2="768.05"/><line class="cls-1" x1="552.84" y1="361.7" x2="546.24" y2="382.9"/><line class="cls-1" x1="552.84" y1="409.85" x2="546.24" y2="431.04"/><line class="cls-1" x1="552.84" y1="457.99" x2="546.24" y2="479.19"/><line class="cls-1" x1="552.84" y1="506.13" x2="546.24" y2="527.33"/><line class="cls-1" x1="552.84" y1="554.28" x2="546.24" y2="575.47"/><line class="cls-1" x1="552.84" y1="602.42" x2="546.24" y2="623.62"/><line class="cls-1" x1="552.84" y1="650.56" x2="546.24" y2="671.76"/><line class="cls-1" x1="552.84" y1="698.71" x2="546.24" y2="719.9"/><line class="cls-1" x1="552.84" y1="746.85" x2="546.24" y2="768.05"/><line class="cls-1" x1="447.16" y1="361.7" x2="453.76" y2="382.9"/><line class="cls-1" x1="447.16" y1="409.85" x2="453.76" y2="431.04"/><line class="cls-1" x1="447.16" y1="457.99" x2="453.76" y2="479.19"/><line class="cls-1" x1="447.16" y1="506.13" x2="453.76" y2="527.33"/><line class="cls-1" x1="447.16" y1="554.28" x2="453.76" y2="575.47"/><line class="cls-1" x1="447.16" y1="602.42" x2="453.76" y2="623.62"/><line class="cls-1" x1="447.16" y1="650.56" x2="453.76" y2="671.76"/><line class="cls-1" x1="447.16" y1="698.71" x2="453.76" y2="719.9"/><line class="cls-1" x1="447.16" y1="746.85" x2="453.76" y2="768.05"/><line class="cls-1" x1="470.6" y1="313.86" x2="477.2" y2="335.06"/><line class="cls-1" x1="470.6" y1="361.7" x2="477.2" y2="382.9"/><line class="cls-1" x1="470.6" y1="506.13" x2="477.2" y2="527.33"/><line class="cls-1" x1="470.6" y1="554.28" x2="477.2" y2="575.47"/><line class="cls-1" x1="470.6" y1="602.42" x2="477.2" y2="623.62"/><line class="cls-1" x1="470.6" y1="650.56" x2="477.2" y2="671.76"/><line class="cls-1" x1="470.6" y1="698.71" x2="477.2" y2="719.9"/><line class="cls-1" x1="470.6" y1="746.85" x2="477.2" y2="768.05"/><line class="cls-1" x1="500" y1="352.09" x2="500" y2="382.9"/><line class="cls-1" x1="500" y1="496.52" x2="500" y2="527.33"/><line class="cls-1" x1="500" y1="544.66" x2="500" y2="575.47"/><line class="cls-1" x1="500" y1="592.8" x2="500" y2="623.62"/><line class="cls-1" x1="500" y1="640.95" x2="500" y2="671.76"/><line class="cls-1" x1="500" y1="689.09" x2="500" y2="719.9"/><line class="cls-1" x1="500" y1="737.23" x2="500" y2="768.05"/><line class="cls-1" x1="569.84" y1="360.3" x2="580.69" y2="360.3"/><line class="cls-1" x1="569.84" y1="382.89" x2="580.69" y2="382.89"/><line class="cls-1" x1="569.84" y1="405.48" x2="580.69" y2="405.48"/><line class="cls-1" x1="569.84" y1="428.07" x2="580.69" y2="428.07"/><line class="cls-1" x1="569.84" y1="450.66" x2="580.69" y2="450.66"/><line class="cls-1" x1="569.84" y1="473.25" x2="580.69" y2="473.25"/><line class="cls-1" x1="569.84" y1="495.84" x2="580.69" y2="495.84"/><line class="cls-1" x1="569.84" y1="518.43" x2="580.69" y2="518.43"/><line class="cls-1" x1="569.84" y1="541.02" x2="580.69" y2="541.02"/><line class="cls-1" x1="569.84" y1="563.61" x2="580.69" y2="563.61"/><line class="cls-1" x1="569.84" y1="586.2" x2="580.69" y2="586.2"/><line class="cls-1" x1="569.84" y1="608.79" x2="580.69" y2="608.79"/><line class="cls-1" x1="569.84" y1="631.38" x2="580.69" y2="631.38"/><line class="cls-1" x1="569.84" y1="653.97" x2="580.69" y2="653.97"/><line class="cls-1" x1="569.84" y1="676.56" x2="580.69" y2="676.56"/><line class="cls-1" x1="569.84" y1="699.15" x2="580.69" y2="699.15"/><line class="cls-1" x1="569.84" y1="721.74" x2="580.69" y2="721.74"/><line class="cls-1" x1="569.84" y1="744.33" x2="580.69" y2="744.33"/><line class="cls-1" x1="569.84" y1="766.92" x2="580.69" y2="766.92"/><line class="cls-1" x1="419.31" y1="360.3" x2="430.16" y2="360.3"/><line class="cls-1" x1="419.31" y1="382.89" x2="430.16" y2="382.89"/><line class="cls-1" x1="419.31" y1="405.48" x2="430.16" y2="405.48"/><line class="cls-1" x1="419.31" y1="428.07" x2="430.16" y2="428.07"/><line class="cls-1" x1="419.31" y1="450.66" x2="430.16" y2="450.66"/><line class="cls-1" x1="419.31" y1="473.25" x2="430.16" y2="473.25"/><line class="cls-1" x1="419.31" y1="495.84" x2="430.16" y2="495.84"/><line class="cls-1" x1="419.31" y1="518.43" x2="430.16" y2="518.43"/><line class="cls-1" x1="419.31" y1="541.02" x2="430.16" y2="541.02"/><line class="cls-1" x1="419.31" y1="563.61" x2="430.16" y2="563.61"/><line class="cls-1" x1="419.31" y1="586.2" x2="430.16" y2="586.2"/><line class="cls-1" x1="419.31" y1="608.79" x2="430.16" y2="608.79"/><line class="cls-1" x1="419.31" y1="631.38" x2="430.16" y2="631.38"/><line class="cls-1" x1="419.31" y1="653.97" x2="430.16" y2="653.97"/><line class="cls-1" x1="419.31" y1="676.56" x2="430.16" y2="676.56"/><line class="cls-1" x1="419.31" y1="699.15" x2="430.16" y2="699.15"/><line class="cls-1" x1="419.31" y1="721.74" x2="430.16" y2="721.74"/><line class="cls-1" x1="419.31" y1="744.33" x2="430.16" y2="744.33"/><line class="cls-1" x1="419.31" y1="766.92" x2="430.16" y2="766.92"/><path class="cls-2" d="M500.29,270.38h0a10.37,10.37,0,0,1-10.23-9.48L486,218.51A10.44,10.44,0,0,1,496.21,207h7.58A10.43,10.43,0,0,1,514,218.36l-3.5,42.39A10.37,10.37,0,0,1,500.29,270.38Z"/><path class="cls-2" d="M516,272.76h0a10.38,10.38,0,0,1-4.39-13.25l16.84-39.11A10.43,10.43,0,0,1,543,215.21l6.64,3.66a10.43,10.43,0,0,1,3.49,14.93l-23.5,35.45A10.38,10.38,0,0,1,516,272.76Z"/><path class="cls-2" d="M484,272.76h0a10.38,10.38,0,0,0,4.39-13.25L471.58,220.4A10.43,10.43,0,0,0,457,215.21l-6.64,3.66a10.43,10.43,0,0,0-3.49,14.93l23.5,35.45A10.38,10.38,0,0,0,484,272.76Z"/><path class="cls-1" d="M487.31,448.08a15.08,15.08,0,0,0,26,0"/><path class="cls-1" d="M479.84,435.75a7.58,7.58,0,0,1,15.15,0"/><path class="cls-1" d="M505.78,435.75a7.58,7.58,0,0,1,15.15,0"/><line class="cls-1" x1="500.29" y1="270.38" x2="500.29" y2="206.96"/><line class="cls-1" x1="515.97" y1="272.76" x2="546.58" y2="217.2"/><line class="cls-1" x1="484.03" y1="272.76" x2="453.66" y2="217.07"/></svg>